<?xml version="1.0" encoding="UTF-8"?>
<svg id="a" data-name="Capa 1" xmlns="http://www.w3.org/2000/svg" viewBox="0 0 1000 1000">
  <defs>
    <style>
      .b {
        fill: #fff7e5;
      }

      .b, .c {
        stroke-width: 0px;
      }

      .c {
        fill: #be8056;
        fill-rule: evenodd;
      }
    </style>
  </defs>
  <g>
    <path class="b" d="M846.24,665.57c-7.61-23.77-18.53-46.07-34.99-65.13-9.87-11.48-20.59-22.23-30.88-33.3-3.13-3.41-6.19-6.86-9.21-10.37-2.13-2.5-2.52-5.07-.65-8.06,2.5-3.98,3.98-8.17,3.35-13.16-.67-5.35-.38-10.78-.67-16.18-.12-2.07-.33-4.3-1.17-6.13-8.02-17.5-19.97-30.6-38.76-37.37-16.57-5.97-33.77-6.69-50.84-8.32-14.93-1.42-28.82,5.02-42.91,9.14-7.86,2.29-11.28,8.27-12.29,15.91-.39,2.9-.24,5.9-.88,8.73-.15.64-3.19,1.53-3.76,1.01-1.83-1.64-3.2-3.83-4.61-5.9-7.32-10.8-14.55-21.67-21.91-32.43-16.37-23.95-36.18-44.68-61.7-58.64-15.03-8.21-31.47-14.09-47.69-19.87-17.09-6.1-35.12-9-53.18-9.94-19.36-1.02-38.69.92-57.85,4.24-5.37.93-10.88,1.07-16.33,1.48-3.69.26-6.53-.94-7.84-4.82-2.03-6.03-6.51-9.45-12.21-11.97-2.98-1.3-5.35-3.95-8.08-5.87-2.04-1.43-4.07-3.29-6.37-3.87-17.41-4.41-34.5-3.5-50.14,5.78-17.99,10.64-31.5,26.43-44.05,42.7-5.26,6.8-8.11,15.61-11.32,23.82-7.48,19.08-8.9,22.56,9.2,37.56-6.69,10.94-13.71,20.97-19.27,31.75-23.73,46.04-33.13,95.21-29.91,146.69.9,14.19,3.51,28.23,8.53,41.88,10,27.17,25.09,51.43,40.88,75.34,10.88,16.45,25.4,29.29,42.15,39.43,11.86,7.18,24.13,13.76,36.47,20.11,6.32,3.25,13.09,5.76,19.85,8.01,23.72,7.92,48.52,10.26,73.09,13.68,2.86.42,5.88.33,8.75-.11,7.35-1.17,7.65-1.44,10.22,4.63,5.31,12.54,12.39,24.02,21.08,34.33,19.03,22.6,40.12,42.85,65.5,58.59,19.24,11.94,40.14,20.16,61.6,25.36,20.63,4.97,42.32,6.98,63.9,4.97,6.28-.57,12.55-1.45,18.83-2.02,21.94-1.99,43.18-6.78,63.28-15.98,8.42-3.83,16.8-7.83,24.97-12.17,29.06-15.46,54.33-35.3,72.35-63.35,5.67-8.82,11.44-17.59,16.68-26.66,3.77-6.52,7.38-13.27,9.93-20.32,5.43-15.03,10.73-30.15,14.99-45.54,6.31-22.88,8.59-46.23,6.2-70.04-1.65-16.57-7.35-31.99-12.34-47.58ZM450.96,576.61c-10.54,13.13-20.51,26.73-30.7,40.15-8.77,11.53-14.87,24.41-19.34,38.14-1.56,4.79-3.07,9.62-4.81,14.35-7.96,21.69-11.41,43.95-9.14,67,.15,1.7.27,3.38.24,5.06-.16,14.33,1.7,13.4-14.74,15.12-2.41.28-4.98-.57-7.42-1.12-20.59-4.78-38.08-14.87-53.32-29.55-14.65-14.12-26.52-30.35-37.77-47.11-3.25-4.83-5.43-10.42-7.93-15.75-15.01-31.93-21.36-65.5-18.02-100.66.87-9.15,2.53-18.54,5.78-27.09,5.08-13.31,11.61-26.07,17.96-38.86,3.66-7.35,9.56-12.15,17.56-15.32,12.85-5.1,25.19-11.47,37.64-17.53,3.32-1.62,6.64-3.67,9.25-6.25,8.14-8.04,18.15-10.09,28.99-10.04,5.9.01,11.79,0,17.68,0,24.18-.3,47.97,3,71.1,9.66,20.26,5.81,39.71,13.87,55.94,28.1,10.18,8.9,18.23,19.57,25.88,30.58,1.93,2.81,1.83,5.4-1.97,7.08-5.01,2.18-9.81,4.88-14.82,7.08-19.01,8.33-36.26,19.6-52.75,31.98-5.67,4.27-10.84,9.46-15.28,15ZM471.82,741.43c-.67.28-1.61-.07-2.44-.13-6.47-49,38-137.29,87.18-158.84,3.07,21.12,4.64,42.19.63,62.72-3.02,15.46-10.05,30.17-15.72,45.04-3.21,8.43-9.41,14.94-16.31,20.55-16.11,13.08-34.37,22.52-53.34,30.67ZM749.3,815.49c-11.68,14.45-24.37,27.88-39.63,38.6-5.13,3.57-10.67,6.87-16.46,9.15-31.57,12.41-63.9,14.04-96.68,5.58-17.9-4.65-36.28-8.2-52.33-18.04-11.08-6.8-21.82-14.25-32.28-22.01-6.18-4.57-5.8-6.82.93-9.44,17.1-6.67,31.06-18.44,46.33-28.06,5.54-3.49,9.74-9.13,14.46-13.93,14.25-14.4,26.34-30.38,37.09-47.63,8.31-13.34,14.4-27.58,20.77-41.7,3.43-7.6,5.39-15.93,7.27-24.13,4.71-20.55,8.56-41.31,8.02-62.49-.28-11.76-1.9-23.48-2.93-35.21-.17-2.01-.37-4-.79-8.4,12.57,7.08,22.7,12.93,32.96,18.52,7.74,4.21,15.61,8.02,24.55,9.21,9.52,1.29,15.87,7.81,21.08,14.95,10.66,14.61,21.71,29.09,30.65,44.73,13.39,23.42,24.48,48.09,26.94,75.5,3.2,35.68-7.55,67.1-29.95,94.79Z"/>
    <path class="b" d="M889.83,441.15c5.27-2.08,7.03-5.61,6.94-10.75-.04-4.28-2-6.18-7.46-6.06-11.37,2.13-21.23,8.81-29.38,18.18-2.85,3.29-3.31,7.66-1.48,9.42,2.82,2.75,5.93.96,8.65-.25,7.63-3.41,14.99-7.45,22.74-10.54Z"/>
    <path class="b" d="M131.3,445.52c-13.12,4.39-26.11,9.15-39.01,14.11-4.72,1.81-6.54,6.26-7.47,11-1.14,5.74,1.42,8.85,8.67,8.87,2.31-.62,6.06-1.28,9.56-2.6,6.27-2.38,12.55-4.86,18.54-7.87,5.57-2.78,11.06-5.9,16.05-9.61,5.94-4.43,6.91-7.58,4.84-11.33-2.72-4.92-7.38-3.84-11.18-2.56Z"/>
    <path class="b" d="M119.12,425.25c3.2-1.48,6.14-4.37,8.2-7.31,2.54-3.6.58-7.94-3.7-8.7-4.53-.79-9.17-.73-14.46-1.08-5.63.66-11.85,1.61-18.12,2.09-6.59.49-9.34,4.58-10.97,10.28-1.75,6.11-.42,8.82,5.87,9.62,11.47,1.47,22.7-.03,33.18-4.91Z"/>
    <path class="b" d="M869.6,480.27c-2.93,1.09-4.44,3.09-4.31,6.38.16,3.5,2.33,5.04,5.28,5.43,4.6.65,9.25.87,13.88,1.28,0-.18,0-.33.02-.49,3.72,0,7.46.27,11.13-.13,1.61-.18,3.72-1.36,4.43-2.7,2.08-3.88-1.43-11.49-5.66-11.93-8.35-.88-16.73-.86-24.77,2.16Z"/>
    <path class="b" d="M896.85,534.04c-.2-3.7-.97-6.95-4.29-8.17-7.9-2.89-15.85-5.72-23.95-7.91-4.17-1.11-6.65,2.02-5.31,6.11.65,1.97,1.83,4.14,3.42,5.37,7.12,5.41,15.56,7.96,24.14,9.72,3.4.72,6.03-2.15,5.98-5.12Z"/>
    <path class="b" d="M92.64,367.39c6.49,2.71,13.48,4.23,20.24,6.27.08-.29.16-.56.24-.85,1.26,0,2.65.36,3.75-.07,2.58-1.02,6.57-1.94,7.14-3.79.86-2.72-.32-6.4-1.52-9.3-.69-1.66-2.92-3.08-4.79-3.82-6.2-2.46-12.41-5.01-18.83-6.69-6.35-1.67-7.97-.36-10.27,5.81-2.5,6.72-1.88,9.97,4.04,12.43Z"/>
    <path class="b" d="M185.66,234.8c1.53,1.12,3.49,1.77,5.35,2.34,10.73,3.27,18.38,10.15,23.28,20.07,2.6,5.22,4.97,10.59,6.92,16.09,1.95,5.5,3.1,11.28,4.87,16.85,1.06,3.32,6.4,6.84,9.26,5.52,2.03-.92,3.68-3.74,4.46-6.07,1.09-3.28,1.53-6.86,1.71-10.34.92-17.34,10.14-27.4,27.18-29.37,7.76-.9,13.06-7.02,12.79-16.14-1.11-1.18-2.58-3.59-4.71-4.84-11.08-6.49-17.18-16.8-22.05-28.05-2.63-6.09-4.81-12.38-6.95-18.67-1.26-3.67-3.15-6.27-7.35-6.33-3.9-.05-6.95,1.61-8.47,5.17-1.68,3.94-3,8.04-4.3,12.12-5.78,18.19-18.84,28.09-36.81,32.41-1.5.36-3.44.07-4.48.92-1.36,1.1-2.53,2.96-2.83,4.65-.2,1.1,1.05,2.88,2.14,3.67Z"/>
    <path class="b" d="M246.49,148.11c2.04-6.17,3.08-12.67,4.27-17.8-.92-6.51-1.21-11.58-2.45-16.41-1.04-4.05-5.14-5.13-8.32-2.86-9.98,7.1-11.53,30.58-2.57,39.2,3.39,3.26,7.48,2.65,9.07-2.13Z"/>
    <path class="b" d="M152.14,224.96c-3.3-.85-6.87-1.28-10.28-1.06-6.06.4-13.62,9.13-13.65,15.19-.03,3.72,5.32,6.8,12.97,7.47.78.07,1.55.09,3.48.19,2.28-.65,5.74-1.28,8.89-2.65,4.09-1.77,8.17-8.81,7.29-12.34-1.1-4.34-4.97-5.84-8.7-6.79Z"/>
    <path class="b" d="M308.71,246.51c1.5.35,3.09.3,3.7.36,2.1-.18,3.27-.27,4.44-.37,6.81-.6,13.15-8.87,11.74-15.6-.28-1.35-1.43-2.83-2.58-3.64-5.5-3.82-16.91-3.09-22.01,1.49-3.2,2.88-6.25,6.23-5.23,11.03,1.13,5.21,5.8,5.77,9.96,6.72Z"/>
    <path class="b" d="M740.32,330.9c1.56.19,3.22-.47,4.84-.67,10.79-1.38,15.92,1.3,20.94,10.79,5.07,9.58,8.63,19.54,8.02,30.62-.09,1.63-.04,3.33.29,4.91.68,3.2,2.9,5.33,6.09,4.93,2.14-.27,4.81-1.57,5.92-3.28,1.48-2.3,1.65-5.44,2.45-8.19,1.64-5.52,3.19-11.05,4.99-16.52,4-12.14,12.16-19.08,25.12-20.59,7.12-.82,10.73-5.24,11.3-13.6-1.18-1.18-2.89-3.25-4.97-4.86-5.46-4.26-12.09-7.48-16.37-12.67-6.32-7.7-9.48-17.27-10.1-27.44-.19-2.87-.19-5.79-.7-8.6-.78-4.28-4.09-5.34-7.08-2.3-5.27,5.35-9.36,11.47-11.38,18.82-2.55,9.21-8.01,16.37-16.28,20.92-6.1,3.34-12.55,6.33-19.18,8.36-5.41,1.66-8.02,4.93-10.19,9.7-2.58,5.63-1.61,8.62,6.3,9.64Z"/>
    <path class="b" d="M796.28,250.85c9.9,0,9.4-20.86,8.41-27.01-1.09-6.64-11.84-6.39-13.13,0-1.13,5.65-5.95,27.01,4.72,27.01Z"/>
    <path class="b" d="M698.59,326.62c3.55.74,6.9.82,10.5.8,4.22-.03,8.99.07,11.9-3.52,2.27-2.81,2.27-5.87,0-8.68-2.61-3.19-6.78-3.49-10.6-3.51-2.49-.01-4.9,0-7.31.18-3.08-1.31-6.95-.15-8.55,3.49-2.79,3.79-.74,10.23,4.06,11.24Z"/>
    <path class="b" d="M785.97,402.76c-.97-2.12-3.87-1.67-5.04-.09-.28.17-.6.25-.83.48-.37.36-1.4.95-1.69,1.24-1.36,1.37-2.45,2.95-3.22,4.94-1.14,2.96-.93,6.53-.81,9.68.29,9.26,14.06,9.26,14.37,0,.05-1.5.18-3.03.04-4.52-.13-1.15-.32-2.28-.49-3.42-.02-.13-.16-1.13-.18-1.24-.14-1.65-.16-3.17-1.08-4.85-.26-.46-.42-1.33-1.01-1.84.29.26.47.41.55.5-.12-.13-.41-.46-.6-.88Z"/>
    <path class="b" d="M856.07,334.19c3.47.34,6.71.13,10.19-.15,9.17-.73,9.17-13.51,0-14.24-3.48-.28-6.72-.49-10.19-.15-3.95.37-6.51,1.61-9.17,4.48-1.52,1.61-1.52,3.97,0,5.58,2.67,2.87,5.22,4.1,9.17,4.48Z"/>
    <path class="b" d="M403.96,258.73c4-2.04,6.74-6.14,9.68-9.35,3.74-4.11,6.94-8.95,9.98-13.57,4.49-6.82-4.61-16.43-11.48-11.48-4.7,3.37-7.97,7.49-11.84,11.72-3.46,3.8-8.83,10.35-8.31,15.82.58,6.1,6.29,9.78,11.97,6.87Z"/>
    <path class="b" d="M421.72,287.01c1.37,3.16,7.39,1.41,9.79.96,4.63-.86,8.73-4.44,13.12-6.09,3.75-1.39,6.27-4.91,5.13-9.02-1.03-3.73-5.22-6.33-9.03-5.12-4.6,1.46-9.49,3.26-13.31,6.26-3.35,2.63-7.69,8.47-5.7,13.01Z"/>
    <path class="b" d="M457.77,318.94c-8.45,3.34-18.07.66-25.74,6.34-1.16.85-1.92,2.85-.51,3.94,9.25,7.17,21.17,7.44,31.56,2.29,6.92-3.44,1.97-15.44-5.31-12.57Z"/>
    <path class="b" d="M235.34,318.29c-1.66-2.31-5.36-2.85-6.89,0-1.96,3.6-1.68,6.53-2.29,10.44-.67,4.26-1.08,8.23-1.13,12.56-.12,11.1,17.33,11.1,17.21,0-.05-4.22-.06-8.44-1.12-12.56-1.07-4.1-3.38-7.11-5.78-10.44Z"/>
    <path class="b" d="M612.58,404.46c1.08.81,2.21,1.91,3.33,2.57,1.21.71,2.38.81,3.83,1.26,3.07.97,5.42-1.57,5.73-4.35.07-.62.08-2.89-.24-4.06-.58-2.11-2.39-3.85-3.8-5.45-2.28-2.6-5.5-4.54-8.27-6.6-2.23-1.67-5.78-.84-7.61.98-2.63,2.63-2.12,6.2,0,8.88,2.01,2.55,4.4,4.85,7.02,6.78Z"/>
    <path class="b" d="M642.93,392.12c.9.54,1.91.92,2.92,1.17-.59-.13-.59-.31.08.43,2.62,2.87,7.12,1.18,8.22-2.17,1.08-3.25-.05-6.29-2.09-8.85-.03-.13-.13-.41-.36-.91-.43-1.13-.81-2.28-1.15-3.42-.58-1.89-1.38-3.84-1.52-5.81-.69-8.98-14.16-9.22-14.15,0,.02,4.81,1.24,9.35,3.21,13.68,1.12,2.47,2.45,4.44,4.83,5.87Z"/>
    <path class="b" d="M437.9,126.66c12.16-.23,17.97,2.19,22.14,13.95,2.12,6,3.99,13.23,9.18,17.36,5.25,4.2,13.75,1.92,13.78-5.71.03-6.41.13-11.4,2.19-17.4,3.52-10.21,10.27-11.06,19.34-9.27,9.21,1.83,13.46-9.27,6.16-14.63-7.75-5.7-15.54-11.1-22.13-18.2-7.44-8.01-4.72-19.2-11.33-27.47-1.03-1.29-3.6-1.29-4.65,0-.61.77-1.16,1.52-1.67,2.28-1.85.43-3.5,1.69-4.09,3.84-2.45,8.91-3.65,16.4-10.15,23.64-4.04,4.49-8.75,7.81-13.45,11.35-6.47-.33-11.75,1.17-13.82,9.14-1.42,5.45,2.67,11.24,8.49,11.13Z"/>
    <path class="b" d="M956.49,633.52c-5.55-6.6-12.17-12.23-18.21-18.38-7.3-7.45-10.19-15.77-14.62-24.87-2.27-4.68-10.26-4.16-11.99.62-.93.65-1.63,1.63-1.83,3.08-1.99,14.63-11.76,32.06-28.08,33.93-10.68,1.22-11.21,17.73,0,17.11,11.6-.64,26.15,3.62,25.48,18.17-.38,8.25-.37,13.14,6.55,18.38,2.85,2.18,6.91.86,9.31-1.19,5.28-4.55,7.7-10.35,9.87-16.86,2.86-8.54,5.58-19.71,15.96-16.99,7.97,2.09,12.39-7.22,7.56-13Z"/>
  </g>
  <g>
    <path class="c" d="M837.89,644.69c-7.61-23.77-18.53-46.07-34.99-65.13-9.87-11.48-20.59-22.23-30.88-33.3-3.13-3.41-6.19-6.86-9.21-10.37-2.13-2.5-2.52-5.07-.65-8.06,2.5-3.98,3.98-8.17,3.35-13.16-.67-5.35-.38-10.78-.67-16.18-.12-2.07-.33-4.3-1.17-6.13-8.02-17.5-19.97-30.6-38.76-37.37-16.57-5.97-33.77-6.69-50.84-8.32-14.93-1.42-28.82,5.02-42.91,9.14-7.86,2.29-11.28,8.27-12.29,15.91-.39,2.9-.24,5.9-.88,8.73-.15.64-3.19,1.53-3.76,1.01-1.83-1.64-3.2-3.83-4.61-5.9-7.32-10.8-14.55-21.67-21.91-32.43-16.37-23.95-36.18-44.68-61.7-58.64-15.03-8.21-31.47-14.09-47.69-19.87-17.09-6.1-35.12-9-53.18-9.94-19.36-1.02-38.69.92-57.85,4.24-5.37.93-10.88,1.07-16.33,1.48-3.69.26-6.53-.94-7.84-4.82-2.03-6.03-6.51-9.45-12.21-11.97-2.98-1.3-5.35-3.95-8.08-5.87-2.04-1.43-4.07-3.29-6.37-3.87-17.41-4.41-34.5-3.5-50.14,5.78-17.99,10.64-31.5,26.43-44.05,42.7-5.26,6.8-8.11,15.61-11.32,23.82-7.48,19.08-8.9,22.56,9.2,37.56-6.69,10.94-13.71,20.97-19.27,31.75-23.73,46.04-33.13,95.21-29.91,146.69.9,14.19,3.51,28.23,8.53,41.88,10,27.17,25.09,51.43,40.88,75.34,10.88,16.45,25.4,29.29,42.15,39.43,11.86,7.18,24.13,13.76,36.47,20.11,6.32,3.25,13.09,5.76,19.85,8.01,23.72,7.92,48.52,10.26,73.09,13.68,2.86.42,5.88.33,8.75-.11,7.35-1.17,7.65-1.44,10.22,4.63,5.31,12.54,12.39,24.02,21.08,34.33,19.03,22.6,40.12,42.85,65.5,58.59,19.24,11.94,40.14,20.16,61.6,25.36,20.63,4.97,42.32,6.98,63.9,4.97,6.28-.57,12.55-1.45,18.83-2.02,21.94-1.99,43.18-6.78,63.28-15.98,8.42-3.83,16.8-7.83,24.97-12.17,29.06-15.46,54.33-35.3,72.35-63.35,5.67-8.82,11.44-17.59,16.68-26.66,3.77-6.52,7.38-13.27,9.93-20.32,5.43-15.03,10.73-30.15,14.99-45.54,6.31-22.88,8.59-46.23,6.2-70.04-1.65-16.57-7.35-31.99-12.34-47.58ZM735.01,530.65c-9.34,6.33-18.09,13.52-27.09,20.33-2.33,1.78-4.83,4.16-7.79,1.91-3.07-2.33-5.47-5.84-4.02-9.77,1.4-3.8,3.6-7.58,6.33-10.53,5.4-5.77,11.37-11.04,17.24-16.36,1.13-1.03,2.85-1.6,4.39-1.96,6.04-1.39,12.13-2.59,18.38-3.91,2.77,8.72.27,15.07-7.44,20.29ZM685.64,461.15c.51-.49,1.63-.49,2.44-.44,17.85,1.17,44.81,9.83,54.12,33.97-10.46,1.42-19.95,2.89-29.48,3.9-2.3.24-4.92-.59-7.12-1.55-6.11-2.71-12.17-5.51-18-8.72-1.92-1.03-4.09-3.29-4.41-5.25-.91-5.76-1.21-11.66-1.13-17.52.02-1.5,2.2-3.06,3.59-4.39ZM680.69,500.82c3.3,1.81,6.58,3.69,9.76,5.67,3.98,2.51,7.88,4.48,12.96,3.02,1.23-.34,3.61,1.53,4.64,2.97.51.68-.51,3.16-1.52,4.11-6.78,6.21-13.75,12.2-20.57,18.33-2.14,1.94-4.04,5.32-7.25,3.6-4.22-2.27-9.9-3.33-10.98-9.28-.81-4.53-1.25-9.13-2-14.86.49-2.14,1.1-5.43,2.05-8.63,2.32-7.81,5.53-9.02,12.91-4.94ZM644.34,466.18c7.23-2.25,14.49-4.45,21.79-6.5,1.01-.27,3.15.24,3.3.8.4,1.34.37,3.19-.3,4.37-1.01,1.77-3.33,2.92-4,4.72-1.93,5.3-4.77,8.63-10.98,7.68-1.14-.18-2.46.51-3.65.91-4.03,1.46-6.22,4.63-3.87,7.65,5.64,7.22,2.41,13.27-.75,19.83-1.19,2.46-1.65,5.28-2.44,7.96-.89-.13-1.76-.26-2.65-.37-.65-5.79-1.56-11.55-1.92-17.33-.32-5.35-.2-10.42-2.2-15.83-3.07-8.32-.74-11.25,7.66-13.89ZM623.14,667.13c3.43-7.6,5.39-15.93,7.27-24.13,4.71-20.55,8.56-41.31,8.02-62.49-.28-11.76-1.9-23.48-2.93-35.21-.17-2.01-.37-4-.79-8.4,12.57,7.08,22.7,12.93,32.96,18.52,7.74,4.21,15.61,8.02,24.55,9.21,9.52,1.29,15.87,7.81,21.08,14.95,10.66,14.61,21.71,29.09,30.65,44.73,13.39,23.42,24.48,48.09,26.94,75.5,3.2,35.68-7.55,67.1-29.95,94.79-11.68,14.45-24.37,27.88-39.63,38.6-5.13,3.57-10.67,6.87-16.46,9.15-31.57,12.41-63.9,14.04-96.68,5.58-17.9-4.65-36.28-8.2-52.33-18.04-11.08-6.8-21.82-14.25-32.28-22.01-6.18-4.57-5.8-6.82.93-9.44,17.1-6.67,31.06-18.44,46.33-28.06,5.54-3.49,9.74-9.13,14.46-13.93,14.25-14.4,26.34-30.38,37.09-47.63,8.31-13.34,14.4-27.58,20.77-41.7ZM352.89,381.4c2.77-.89,5.41-2.22,8.15-3.22,3.16-1.14,6.29-2.77,9.56-3.09,35.46-3.36,70.59-3.7,104.25,10.89,16.59,7.19,33.52,13.62,50.04,20.94,5.28,2.34,10.22,5.93,14.52,9.85,27.93,25.41,48.01,55.99,60.13,91.88,9.21,27.3,14.8,57.24,14.86,89.9.17,9.15-.51,23.82-7.36,37.49-.56,1.09-1,2.4-1.04,3.62-.56,18.25-10.63,32.6-19.7,47.21-7.09,11.4-15.3,22.13-22.93,33.22-10.09,14.68-22.27,27.43-35.29,39.46-11.77,10.89-26.09,16.81-41.08,21.36-1.94.6-5.64.05-6.56-1.3-4.46-6.54-8.5-13.42-12.19-20.47-1.96-3.75-1.04-6.86,3.29-9.31,8.04-4.55,15.64-9.87,23.44-14.84,34.4-21.88,56.41-53.58,70.46-91.04,3.33-8.84,4.1-18.96,4.33-28.54.43-18.07-.41-36.17-.69-54.27-.08-5.04-.11-10.08-.22-15.1-.04-1.68.11-3.47-.42-5.01-8.19-23.66-13.72-48.23-29.5-68.95-18.54-24.35-42.01-40.44-70.69-50.45-29.52-10.29-59.5-14.71-90.59-12.12-5.87.49-11.77.82-17.66.9-3.24.05-7.01.25-9.51-1.29-1.22-.76.33-5.41-.09-8.19-.33-2.32-1.57-4.53-2.67-6.66-3.71-7.22-2.42-10.4,5.17-12.87ZM463.47,720.55c-.67.28-1.61-.07-2.44-.13-6.47-49,38-137.29,87.18-158.84,3.07,21.12,4.64,42.19.63,62.72-3.02,15.46-10.05,30.17-15.72,45.04-3.21,8.43-9.41,14.94-16.31,20.55-16.11,13.08-34.37,22.52-53.34,30.67ZM356.84,426.27c5.9.01,11.79,0,17.68,0,24.18-.3,47.97,3,71.1,9.66,20.26,5.81,39.71,13.87,55.94,28.1,10.18,8.9,18.23,19.57,25.88,30.58,1.93,2.81,1.83,5.4-1.97,7.08-5.01,2.18-9.81,4.88-14.82,7.08-19.01,8.33-36.26,19.6-52.75,31.98-5.67,4.27-10.84,9.46-15.28,15-10.54,13.13-20.51,26.73-30.7,40.15-8.77,11.53-14.87,24.41-19.34,38.14-1.56,4.79-3.07,9.62-4.81,14.35-7.96,21.69-11.41,43.95-9.14,67,.15,1.7.27,3.38.24,5.06-.16,14.33,1.7,13.4-14.74,15.12-2.41.28-4.98-.57-7.42-1.12-20.59-4.78-38.08-14.87-53.32-29.55-14.65-14.12-26.52-30.35-37.77-47.11-3.25-4.83-5.43-10.42-7.93-15.75-15.01-31.93-21.36-65.5-18.02-100.66.87-9.15,2.53-18.54,5.78-27.09,5.08-13.31,11.61-26.07,17.96-38.86,3.66-7.35,9.56-12.15,17.56-15.32,12.85-5.1,25.19-11.47,37.64-17.53,3.32-1.62,6.64-3.67,9.25-6.25,8.14-8.04,18.15-10.09,28.99-10.04ZM270.58,405.86c2.62-1.31,5.76-1.66,8.24-3.12,5.26-3.11,12.21-4,14.8-10.95.36-.9,3.07-1.72,4.27-1.31,1.17.37,2.46,2.29,2.59,3.65.92,9.6,1.57,19.24,2.32,28.86.85,5.95-9.06,12.93-14.48,9.77-7.5-4.34-16.06-7.45-20.67-15.88-2.94-5.38-2.68-8.22,2.93-11.01ZM309.88,377.94c2.35-5.34,4.83-10.6,7.6-16.57,8.87,3.38,12.05,9.1,11.64,17.8-.54,11.3-.1,22.64-.11,33.97,0,2.94.24,6.39-3.22,7.45-3.73,1.14-7.97.84-10.21-2.76-2.14-3.46-3.91-7.48-4.57-11.48-1.3-7.81-1.78-15.78-2.38-23.71-.12-1.52.58-3.22,1.25-4.7ZM245.97,373.65c14.9-15.41,32.18-25.57,54.7-23.12.81.09,1.63.42,2.39.75.34.15.55.6,1.34,1.52-4.88,8.78-9.87,17.83-14.98,26.81-.57,1-1.77,1.94-2.89,2.3-7.63,2.56-14.59,6.26-21.17,10.9-1.18.84-4.08.19-5.66-.71-4-2.25-7.8-4.91-11.51-7.65-5.49-4.01-6.27-6.61-2.22-10.8ZM222.9,414.04c2.24-6.79,4.6-13.51,7.23-20.14.68-1.72,2.58-2.96,3.93-4.41,1.15,1.5,2.6,2.85,3.37,4.53.84,1.86.53,4.36,1.62,5.94,2.75,3.9,3.43,7.16-.41,10.84-1.39,1.34-1.93,3.69-2.61,5.67-.98,2.89.55,5.98,2.92,5.96,10.5-.03,13.8,7.81,17.95,15.02.98,1.7,2.62,3.03,3.95,4.53-.56.76-1.12,1.52-1.67,2.27-4.96-2.78-9.96-5.52-14.87-8.36-5.27-3.06-9.48-7.35-15.96-9.07-7.11-1.88-7.85-5.54-5.46-12.76ZM312.59,784.33c-19.21-7.32-38.3-16.06-54.24-29.25-15.9-13.13-29.25-28.99-39.29-47.32-11.38-20.79-20.78-42.27-24.13-65.99-6.23-44.4-4.96-88.24,10.85-130.73,6.01-16.13,12.75-31.99,22.09-46.65,8.57-13.43,10-14.06,26.27-6.78-7.45,16.19-14.72,31.32-21.4,46.7-6.42,14.79-10.25,30.33-10.89,46.47-.95,24.05-.07,47.86,5.62,71.52,13.45,55.9,46.46,96.54,96.48,123.13,14.56,7.73,31.28,12.36,48.72,10.58,8.41-.85,9.03.08,11.74,7.78,3.48,9.9,7.4,19.63,11.01,29.5.81,2.22,1.12,4.61,1.89,8.02-29.35-3.98-57.92-6.72-84.72-16.98ZM825.45,730.63c-5.23,34.41-16.76,66.82-34.25,96.96-6.11,10.53-12.12,21.25-19.54,30.82-10.07,12.98-22.25,24.23-35.92,33.41-28.74,19.32-61.03,27.8-95.36,29.32-11.78.51-23.56,1.21-35.33,1.78-20.37.98-40.38-1.65-60.16-6.18-10.44-2.36-19.37-8.07-28.39-13.53-11.15-6.77-22.31-13.49-33.71-19.81-9.04-5.02-16.36-11.77-22.7-19.8-2.61-3.33-4.75-7.18-7.93-9.78-11.68-9.62-19.67-22-26.41-35.16-9.57-18.7-20.14-37.02-23.31-58.38-4.1-27.67-5.02-55.2-1.71-83.12,2.28-19.1,7.22-37.16,14.93-54.51,9.06-20.38,23.84-36.8,40.07-51.55,13.02-11.84,27.3-22.45,41.89-32.34,10.75-7.27,22.76-12.69,34.44-18.48,4.8-2.36,6.81-1.16,8.76,3.62.64,1.53,1.21,3.18,1.46,4.84,1.62,10.65,4.7,11.07-6.91,18.48-21.77,13.89-41.44,30.35-57.27,51.01-14.42,18.82-26.12,39.35-33.5,61.79-3.87,11.76-4.62,24.82-5.28,37.36-.88,16.45,1.63,32.81,4.94,48.95.49,2.46.97,5.02,1.98,7.29,11.11,24.69,23.22,48.87,43.51,67.46,10.2,9.38,21.58,17.5,32.73,25.76,3.29,2.46,7.45,4.01,11.45,5.22,30.68,9.28,61.58,18.04,93.8,19.23,47.07,1.7,86.16-16.19,117.69-50.86,7.35-8.07,14.77-16.19,21.1-25.05,26.86-37.73,33.75-78.83,20.34-123.47-10.63-35.4-28.54-66.35-53.88-93.13-3.18-3.36-6.07-7-9.01-10.58-.49-.6-.6-1.53-1.06-2.82,1.59-1.09,3.2-2.38,4.99-3.33,3.46-1.81,5.66-3.93,7.03-8.12,2.45-7.45,6.06-7.03,13.22-3.38,14.48,7.39,23.23,20.19,33.5,31.77,17.14,19.36,28.37,41.73,35.09,66.42,3.76,13.76,6.64,27.8,9.85,41.71,3.12,13.47.86,26.99-1.15,40.18Z"/>
    <path class="c" d="M858.74,430.81c7.63-3.41,14.99-7.45,22.74-10.54,5.27-2.08,7.03-5.61,6.94-10.75-.04-4.28-2-6.18-7.46-6.06-11.37,2.13-21.23,8.81-29.38,18.18-2.85,3.29-3.31,7.66-1.48,9.42,2.82,2.75,5.93.96,8.65-.25Z"/>
    <path class="c" d="M122.95,424.64c-13.12,4.39-26.11,9.15-39.01,14.11-4.72,1.81-6.54,6.26-7.47,11-1.14,5.74,1.42,8.85,8.67,8.87,2.31-.62,6.06-1.28,9.56-2.6,6.27-2.38,12.55-4.86,18.54-7.87,5.57-2.78,11.06-5.9,16.05-9.61,5.94-4.43,6.91-7.58,4.84-11.33-2.72-4.92-7.38-3.84-11.18-2.56Z"/>
    <path class="c" d="M110.77,404.38c3.2-1.48,6.14-4.37,8.2-7.31,2.54-3.6.58-7.94-3.7-8.7-4.53-.79-9.17-.73-14.46-1.08-5.63.66-11.85,1.61-18.12,2.09-6.59.49-9.34,4.58-10.97,10.28-1.75,6.11-.42,8.82,5.87,9.62,11.47,1.47,22.7-.03,33.18-4.91Z"/>
    <path class="c" d="M886.02,457.23c-8.35-.88-16.73-.86-24.77,2.16-2.93,1.09-4.44,3.09-4.31,6.38.16,3.5,2.33,5.04,5.28,5.43,4.6.65,9.25.87,13.88,1.28,0-.18,0-.33.02-.49,3.72,0,7.46.27,11.13-.13,1.61-.18,3.72-1.36,4.43-2.7,2.08-3.88-1.43-11.49-5.66-11.93Z"/>
    <path class="c" d="M884.21,504.99c-7.9-2.89-15.85-5.72-23.95-7.91-4.17-1.11-6.65,2.02-5.31,6.11.65,1.97,1.83,4.14,3.42,5.37,7.12,5.41,15.56,7.96,24.14,9.72,3.4.72,6.03-2.15,5.98-5.12-.2-3.7-.97-6.95-4.29-8.17Z"/>
    <path class="c" d="M84.29,346.52c6.49,2.71,13.48,4.23,20.24,6.27.08-.29.16-.56.24-.85,1.26,0,2.65.36,3.75-.07,2.58-1.02,6.57-1.94,7.14-3.79.86-2.72-.32-6.4-1.52-9.3-.69-1.66-2.92-3.08-4.79-3.82-6.2-2.46-12.41-5.01-18.83-6.69-6.35-1.67-7.97-.36-10.27,5.81-2.5,6.72-1.88,9.97,4.04,12.43Z"/>
    <path class="c" d="M177.31,213.93c1.53,1.12,3.49,1.77,5.35,2.34,10.73,3.27,18.38,10.15,23.28,20.07,2.6,5.22,4.97,10.59,6.92,16.09,1.95,5.5,3.1,11.28,4.87,16.85,1.06,3.32,6.4,6.84,9.26,5.52,2.03-.92,3.68-3.74,4.46-6.07,1.09-3.28,1.53-6.86,1.71-10.34.92-17.34,10.14-27.4,27.18-29.37,7.76-.9,13.06-7.02,12.79-16.14-1.11-1.18-2.58-3.59-4.71-4.84-11.08-6.49-17.18-16.8-22.05-28.05-2.63-6.09-4.81-12.38-6.95-18.67-1.26-3.67-3.15-6.27-7.35-6.33-3.9-.05-6.95,1.61-8.47,5.17-1.68,3.94-3,8.04-4.3,12.12-5.78,18.19-18.84,28.09-36.81,32.41-1.5.36-3.44.07-4.48.92-1.36,1.1-2.53,2.96-2.83,4.65-.2,1.1,1.05,2.88,2.14,3.67ZM215.27,211.69c4.26-6.39,8.9-12.53,13.53-18.94,3.87,5.87,7.6,11.53,11.35,17.18,2.03,3.06,1.61,5.73-.96,8.34-3.82,3.86-7.48,7.88-11.93,12.6-4.37-5.24-8.24-9.56-11.68-14.2-.86-1.16-1.08-3.84-.32-4.99Z"/>
    <path class="c" d="M231.64,90.18c-9.98,7.1-11.53,30.58-2.57,39.2,3.39,3.26,7.48,2.65,9.07-2.13,2.04-6.17,3.08-12.67,4.27-17.8-.92-6.51-1.21-11.58-2.45-16.41-1.04-4.05-5.14-5.13-8.32-2.86Z"/>
    <path class="c" d="M143.79,204.09c-3.3-.85-6.87-1.28-10.28-1.06-6.06.4-13.62,9.13-13.65,15.19-.03,3.72,5.32,6.8,12.97,7.47.78.07,1.55.09,3.48.19,2.28-.65,5.74-1.28,8.89-2.65,4.09-1.77,8.17-8.81,7.29-12.34-1.1-4.34-4.97-5.84-8.7-6.79Z"/>
    <path class="c" d="M317.65,206.39c-5.5-3.82-16.91-3.09-22.01,1.49-3.2,2.88-6.25,6.23-5.23,11.03,1.13,5.21,5.8,5.77,9.96,6.72,1.5.35,3.09.3,3.7.36,2.1-.18,3.27-.27,4.44-.37,6.81-.6,13.15-8.87,11.74-15.6-.28-1.35-1.43-2.83-2.58-3.64Z"/>
    <path class="c" d="M663.97,895.46c-22.65,1.92-45.25,4.29-68.07,3.41-20.9-.82-40.83-5.37-60.11-13.22-1.92-.77-3.87-1.76-5.88-1.97-2.37-.24-4.39,1.27-3.64,3.75.8,2.69,1.97,5.98,4.09,7.45,5.81,4.01,11.91,7.92,18.41,10.66,20.19,8.46,41.61,9.8,63.37,10.99,13.7-2.01,27.44-3.82,41.11-6.1,4.51-.75,8.99-2.32,13.19-4.17,5.53-2.43,8.36-6.62,6.71-9.2-2.35-3.69-5.91-1.86-9.16-1.6Z"/>
    <path class="c" d="M717.74,883.21c-1.17-2.38-3.22-4.24-5.89-2.85-1.52.81-2.29,3.03-3.13,4.26.44,2.76.56,4.84,1.15,6.82,1.04,3.46,3.82,4.06,6.95,3.38,3.15-.68,3.49-3.21,2.95-5.77-.42-1.99-1.12-4-2.03-5.82Z"/>
    <path class="c" d="M737.35,871.31c-2.58-.64-4.41,1.94-4.34,7.96.62.75,1.86,3.49,3.94,4.5,2.51,1.21,5.61-1.97,5.46-4.97-.17-3.47-1.17-6.54-5.06-7.48Z"/>
    <g>
      <path class="c" d="M816.96,293.59c-5.46-4.26-12.09-7.48-16.37-12.67-6.32-7.7-9.48-17.27-10.1-27.44-.19-2.87-.19-5.79-.7-8.6-.78-4.28-4.09-5.34-7.08-2.3-5.27,5.35-9.36,11.47-11.38,18.82-2.55,9.21-8.01,16.37-16.28,20.92-6.1,3.34-12.55,6.33-19.18,8.36-5.41,1.66-8.02,4.93-10.19,9.7-2.58,5.63-1.61,8.62,6.3,9.64,1.56.19,3.22-.47,4.84-.67,10.79-1.38,15.92,1.3,20.94,10.79,5.07,9.58,8.63,19.54,8.02,30.62-.09,1.63-.04,3.33.29,4.91.68,3.2,2.9,5.33,6.09,4.93,2.14-.27,4.81-1.57,5.92-3.28,1.48-2.3,1.65-5.44,2.45-8.19,1.64-5.52,3.19-11.05,4.99-16.52,4-12.14,12.16-19.08,25.12-20.59,7.12-.82,10.73-5.24,11.3-13.6-1.18-1.18-2.89-3.25-4.97-4.86ZM791.64,304.46c-5.14,5.23-10.15,10.6-15.74,16.45-4.22-6.97-8.55-13.75-12.4-20.78-.71-1.31-.2-4.2.84-5.43,4.7-5.56,9.82-10.77,14.95-16.27,4.29,6.5,8.56,12.97,12.8,19.45,1.5,2.28,1.7,4.41-.44,6.59Z"/>
      <path class="c" d="M787.93,229.98c9.9,0,9.4-20.86,8.41-27.01-1.09-6.64-11.84-6.39-13.13,0-1.13,5.65-5.95,27.01,4.72,27.01Z"/>
      <path class="c" d="M702.04,290.84c-2.49-.01-4.9,0-7.31.18-3.08-1.31-6.95-.15-8.55,3.49-2.79,3.79-.74,10.23,4.06,11.24,3.55.74,6.9.82,10.5.8,4.22-.03,8.99.07,11.9-3.52,2.27-2.81,2.27-5.87,0-8.68-2.61-3.19-6.78-3.49-10.6-3.51Z"/>
      <path class="c" d="M779.94,390.2c-.02-.13-.16-1.13-.18-1.24-.14-1.65-.16-3.17-1.08-4.85-.26-.46-.42-1.33-1.01-1.84.29.26.47.41.55.5-.12-.13-.41-.46-.6-.88-.97-2.12-3.87-1.67-5.04-.09-.28.17-.6.25-.83.48-.37.36-1.4.95-1.69,1.24-1.36,1.37-2.45,2.95-3.22,4.94-1.14,2.96-.93,6.53-.81,9.68.29,9.26,14.06,9.26,14.37,0,.05-1.5.18-3.03.04-4.52-.13-1.15-.32-2.28-.49-3.42Z"/>
      <path class="c" d="M857.91,298.93c-3.48-.28-6.72-.49-10.19-.15-3.95.37-6.51,1.61-9.17,4.48-1.52,1.61-1.52,3.97,0,5.58,2.67,2.87,5.22,4.1,9.17,4.48,3.47.34,6.71.13,10.19-.15,9.17-.73,9.17-13.51,0-14.24Z"/>
    </g>
    <path class="c" d="M403.79,203.46c-4.7,3.37-7.97,7.49-11.84,11.72-3.46,3.8-8.83,10.35-8.31,15.82.58,6.1,6.29,9.78,11.97,6.87,4-2.04,6.74-6.14,9.68-9.35,3.74-4.11,6.94-8.95,9.98-13.57,4.49-6.82-4.61-16.43-11.48-11.48Z"/>
    <path class="c" d="M423.17,267.1c4.63-.86,8.73-4.44,13.12-6.09,3.75-1.39,6.27-4.91,5.13-9.02-1.03-3.73-5.22-6.33-9.03-5.12-4.6,1.46-9.49,3.26-13.31,6.26-3.35,2.63-7.69,8.47-5.7,13.01,1.37,3.16,7.39,1.41,9.79.96Z"/>
    <path class="c" d="M423.17,308.35c9.25,7.17,21.17,7.44,31.56,2.29,6.92-3.44,1.97-15.44-5.31-12.57-8.45,3.34-18.07.66-25.74,6.34-1.16.85-1.92,2.85-.51,3.94Z"/>
    <path class="c" d="M226.99,297.42c-1.66-2.31-5.36-2.85-6.89,0-1.96,3.6-1.68,6.53-2.29,10.44-.67,4.26-1.08,8.23-1.13,12.56-.12,11.1,17.33,11.1,17.21,0-.05-4.22-.06-8.44-1.12-12.56-1.07-4.1-3.38-7.11-5.78-10.44Z"/>
    <path class="c" d="M616.88,379.01c-.58-2.11-2.39-3.85-3.8-5.45-2.28-2.6-5.5-4.54-8.27-6.6-2.23-1.67-5.78-.84-7.61.98-2.63,2.63-2.12,6.2,0,8.88,2.01,2.55,4.4,4.85,7.02,6.78,1.08.81,2.21,1.91,3.33,2.57,1.21.71,2.38.81,3.83,1.26,3.07.97,5.42-1.57,5.73-4.35.07-.62.08-2.89-.24-4.06Z"/>
    <path class="c" d="M643.72,361.84c-.03-.13-.13-.41-.36-.91-.43-1.13-.81-2.28-1.15-3.42-.58-1.89-1.38-3.84-1.52-5.81-.69-8.98-14.16-9.22-14.15,0,.02,4.81,1.24,9.35,3.21,13.68,1.12,2.47,2.45,4.44,4.83,5.87.9.54,1.91.92,2.92,1.17-.59-.13-.59-.31.08.43,2.62,2.87,7.12,1.18,8.22-2.17,1.08-3.25-.05-6.29-2.09-8.85Z"/>
    <path class="c" d="M502.34,90.08c-7.75-5.7-15.54-11.1-22.13-18.2-7.44-8.01-4.72-19.2-11.33-27.47-1.03-1.29-3.6-1.29-4.65,0-.61.77-1.16,1.52-1.67,2.28-1.85.43-3.5,1.69-4.09,3.84-2.45,8.91-3.65,16.4-10.15,23.64-4.04,4.49-8.75,7.81-13.45,11.35-6.47-.33-11.75,1.17-13.82,9.14-1.42,5.45,2.67,11.24,8.49,11.13,12.16-.23,17.97,2.19,22.14,13.95,2.12,6,3.99,13.23,9.18,17.36,5.25,4.2,13.75,1.92,13.78-5.71.03-6.41.13-11.4,2.19-17.4,3.52-10.21,10.27-11.06,19.34-9.27,9.21,1.83,13.46-9.27,6.16-14.63ZM470.63,94.69c-3.67,3.18-6.18,6.88-7.99,10.85-.95-2.38-2.06-4.59-3.51-6.39-2.04-2.5-4.33-4.39-6.79-5.88,2.67-2.24,5.27-4.57,7.79-7.29,2.09-2.25,3.83-4.61,5.32-7.05,3.16,4.09,7.08,7.92,11.19,11.47-1.89,1.09-3.86,2.43-6.01,4.29Z"/>
    <path class="c" d="M948.15,612.65c-5.55-6.6-12.17-12.23-18.21-18.38-7.3-7.45-10.19-15.77-14.62-24.87-2.27-4.68-10.26-4.16-11.99.62-.93.65-1.63,1.63-1.83,3.08-1.99,14.63-11.76,32.06-28.08,33.93-10.68,1.22-11.21,17.73,0,17.11,11.6-.64,26.15,3.62,25.48,18.17-.38,8.25-.37,13.14,6.55,18.38,2.85,2.18,6.91.86,9.31-1.19,5.28-4.55,7.7-10.35,9.87-16.86,2.86-8.54,5.58-19.71,15.96-16.99,7.97,2.09,12.39-7.22,7.56-13ZM920.02,617.36c-3.29,4.27-5.2,9.85-7.18,15.3-1.79-4.66-4.42-9.57-7.13-13.26-2.13-2.89-4.72-5.01-7.57-6.67,4.97-5.02,8.69-11.3,11.06-18.18,4.36,6.26,10.34,11.89,16.17,17.33-1.74,1.3-3.48,3.08-5.36,5.48Z"/>
  </g>
</svg>