<?xml version="1.0" encoding="UTF-8"?>
<svg id="a" data-name="Capa 1" xmlns="http://www.w3.org/2000/svg" viewBox="0 0 1000 1000">
  <defs>
    <style>
      .b {
        fill: #fff7e5;
      }

      .b, .c {
        stroke-width: 0px;
      }

      .c {
        fill: #be8056;
        fill-rule: evenodd;
      }
    </style>
  </defs>
  <path class="b" d="M642.26,672.43c1.15-.22,2.52-.38,3.54-.87-.3,1.28.41,2.83,2.13,2.98,2.27.18,4.46.45,6.63.73,7.35,3.22,15.1,5,23.31,5.3,1.38.06,2.2-1.05,2.28-2.2,2.84,1.95,6.01,3.53,9.95,4.33,10.77-4.68,22.17-9.45,33.4-14.62,3.17-1.48,6.57-3.59,8.57-6.34,9.71-13.34,19.96-26.4,25.17-42.49,5.42-16.77,11.97-33.47,11.3-51.3-1.31-35.14-1.1-70.35-6.84-105.28-3.69-22.45-5.47-45.22-8.16-67.85-2.87-24.14-5.22-48.38-8.86-72.41-2.94-19.42-7.58-38.58-11.24-57.89-2.46-12.9-10.97-19.4-22.89-22.49-3.51-.9-7.12-1.37-10.68-2.07-20.98-4.12-42.22-4.94-63.39-2.86-21.61,2.12-43.22,4.86-64.58,8.69-7.92,1.42-15.58,3.86-22.62,7.68.64-6.12,1.31-12.23,2.05-18.33,1.61-13.05-4.51-21.84-14.92-28.4-3.07-1.94-6.36-3.49-9.53-5.24-18.73-10.33-38.69-17.6-59.48-22.09-21.23-4.58-42.64-8.59-64.15-11.47-13.3-1.79-26.77-.73-39.38,5.61-8.86,4.44-14.6,10.01-16.66,20.48-7.59,38.59-18.56,76.46-23.81,115.56-3.73,27.69-8.26,55.29-11.78,83.01-3.31,26.18-5.92,52.47-8.56,78.73-1.46,14.42-2.42,28.88-3.48,43.33-1.12,15.17,1.02,29.85,6.17,44.2,3.37,9.41,8.5,17.74,14.42,25.6,4.88,6.49,11.61,10.21,19.72,11.23,1.43.18,3.13.53,4.33.05,2.9,2.09,5.93,3.99,8.65,6.34,1.57,1.36,4.01.18,4.06-1.58,1.29.53,2.56,1.04,3.9,1.43.17.05.35.1.53.15,1.45.73,2.9,1.47,4.42,2.1.14.06.26.13.4.18,1.28.8,2.56,1.53,3.89,2.26,2.85,5.17,6.17,10.06,12.23,13.47,11.68-1.16,24-2.22,36.28-3.72,3.47-.43,7.35-1.4,10.11-3.42,13.33-9.73,27.07-19.02,36.95-32.77,10.28-14.31,21.61-28.2,26.44-45.39,9.47-33.87,20.45-67.34,25.64-102.34,3.35-22.5,8.61-44.73,12.97-67.09.67-3.45,1.36-6.89,2.05-10.34,1.57,16.74,3.45,33.45,6.42,50.04,4.92,27.51,9.03,55.16,14.16,82.63,4.83,25.96,10.39,51.77,15.89,77.58,3.02,14.18,6.52,28.25,9.92,42.33,3.57,14.78,10.1,28.1,19.38,40.2,6.09,7.93,13.52,14.29,21.56,19.97,6.63,4.67,14.17,6.17,22.21,4.67ZM532.75,230.14c-.24,2.57-.42,5.17-.87,7.71-2.04,11.73-4.11,23.48-6.3,35.18-.75,4.03-1.4,8.23-5.81,11.14-7.18.4-14.93,1.37-22.64,1.15-19.8-.55-39.29-2.61-56.45-14.18-5.12-3.46-10.78-6.22-16.44-8.76-15.57-7.01-31.5-10.09-48.18-3.73-6.71,2.55-11.66,6.9-13.88,13.61-.06.18-.07.38-.12.57-.39.27-.8.56-1.19.85-1.77,1.04-3.53,2.18-5.32,3.54-2.28,1.73-4.37,3.73-6.42,5.75,4.09-23.01,8.33-45.99,12.03-69.05,2.87-17.94,24.8-35.29,45.11-31.85,3.07.52,6.16.91,9.24,1.3,26.34,3.36,51.56,11.44,76.89,18.82,11.32,3.29,21.8,9.4,32.7,14.17,6.12,2.66,8.23,7.45,7.64,13.78ZM573.73,340.46c-5.09,4.07-8.32,9.13-8.92,15.32-1.62,2.3-3.21,4.61-5.04,6.76-.99,1.16-.34,2.61.71,3.07-1.86,2.32-3.53,4.77-4.81,7.29-3.19-23.49-6.22-47.03-9.8-70.47-2.74-17.96,12.84-41.19,33.23-44.12,3.07-.45,6.13-1.01,9.19-1.58,26.11-4.85,52.59-4.86,78.97-5.58,11.78-.32,23.63,2.3,35.45,3.5,6.65.67,10.12,4.58,11.5,10.77.56,2.53,1.17,5.05,1.53,7.62,1.63,11.8,3.25,23.6,4.76,35.42.51,4.07,1.18,8.27-2.13,12.4-6.72,2.57-13.8,5.86-21.21,8.01-19.02,5.52-38.21,9.5-58.07,3.75-5.93-1.73-12.17-2.64-18.34-3.32-16.96-1.92-33.07,0-47.02,11.16Z"/>
  <path class="b" d="M453.26,83.86c8.98,12.37,13.74,26.57,18.24,40.95,2.46,7.87,5.55,15.57,8.84,23.15,1.34,3.09,3.95,5.65,7.19,10.11,5.3-7.69,5.8-13.69,4.59-19.95-2.46-12.74-5.93-25.23-11.71-36.88-3.44-6.91-7.48-13.63-12.14-19.78-2.69-3.56-6.94-6.1-10.87-8.47-1.17-.71-4.24.11-5.32,1.28-1.1,1.2-1.2,3.7-1.02,5.56.15,1.4,1.3,2.79,2.21,4.05Z"/>
  <path class="b" d="M530.27,133.15c7.07-2.96,10.22-8.08,10.79-13.63,1.1-10.65,1.27-21.44,1.15-32.16-.08-5.95-3.74-10.47-8.59-13.92-3.85-2.74-8.33-.78-9.07,4.04-.07.5-.23,1.01-.24,1.53-.12,12.8-.43,25.63-.25,38.45.08,5.52.77,11.22,6.21,15.7Z"/>
  <path class="b" d="M601.25,145.72c3.19,1.75,6.18.77,8.57-1.35,6.15-5.5,12.28-11.04,18.02-16.96,3.59-3.7,2.84-8.45-1.1-12.33-4.18-4.13-8.19-4.6-12.37-1.25-6.15,4.91-10.99,10.91-15.49,20.81.51-1.35-.12.07-.58,1.54-1.24,4.03-.02,7.9,2.96,9.54Z"/>
  <path class="b" d="M826.09,919.02c-19.71-6.69-39.14-13.61-59.58-17.21-4.05-.7-8.23-1.06-12.33-.88-.97.04-1.93.82-2.92,1.67-3.41-.94-6.84-1.8-10.26-2.52-6.18-1.3-12.3-1.68-18.4-1.58-1.38-12.08-2.52-23.62-4.31-35.03-3.51-22.46-8.09-44.78-11.26-67.3-3.96-28.18-6.91-56.51-10.38-84.75-.61-5.08-.6-10.39-4.53-15.22-4.24-1.49-8.91-3.13-13.38-4.71-3.87,6.09-3.69,11.81-3.04,17.49,2.23,19.54,4.4,39.07,6.95,58.57,5.42,41.54,11.04,83.07,16.67,124.6.36,2.74.87,5.45,1.42,8.14-.89.11-1.78.21-2.69.32-1.5.19-2.95.55-4.38.96-.18-1.03-2.01-2.27-3.31-2.65-5.61-1.54-11.18-1.2-16.8.53-16.92,5.22-32.5,13.42-48.2,21.33-1.84.94-3.62,2.08-5.14,3.46-5.75,5.23-5.4,14,.28,17.46,3.97,2.41,7.66,5.47,11.89,7.2,15.46,6.38,31.81,9.54,48.39,9.96,18.6.47,37.22-.41,55.83-.91,28.38-.76,54.91-9.23,80.92-19.77,7.91-3.21,11.37-8.53,8.56-19.17Z"/>
  <path class="b" d="M376.63,847.44c-.16-.04-.35,0-.52,0-4.53-2.36-9.24-4.47-13.92-6.28-.69-.36-1.33-.68-1.85-.93-3.8-1.86-8.19-3.79-12.88-5.54,2.33-11.62,4.7-22.72,6.45-33.87,3.53-22.47,5.98-45.11,9.85-67.53,4.84-28.03,10.68-55.91,16.02-83.87.96-5.02,2.6-10.07.33-15.87-3.59-2.72-7.53-5.7-11.31-8.56-5.53,4.61-7.11,10.11-8.23,15.72-3.85,19.28-7.75,38.54-11.28,57.89-7.53,41.21-14.88,82.47-22.22,123.73-.41,2.35-.7,4.72-.98,7.08-2.48-.24-4.93-.32-7.33-.21-.14-1.05-1.29-2.48-2.29-3.15-4.87-3.19-10.27-4.57-16.16-4.63-17.71-.21-35.04,2.85-52.42,5.58-2.02.33-4.07.87-5.94,1.72-7.09,3.22-9.42,11.7-5.08,16.71,3.04,3.52,5.62,7.55,9.12,10.5,12.78,10.8,27.38,18.8,43.04,24.27,17.55,6.13,35.55,10.98,53.43,16.21,27.25,7.95,55.1,7.98,83.08,5.89,8.52-.63,13.44-4.64,14.03-15.63-16.72-12.39-33.11-24.93-51.48-34.6-3.64-1.91-7.53-3.53-11.47-4.62Z"/>
  <g>
    <path class="c" d="M432.34,69.48c8.98,12.37,13.74,26.57,18.25,40.95,2.46,7.87,5.55,15.57,8.83,23.15,1.34,3.09,3.96,5.65,7.19,10.11,5.31-7.69,5.81-13.69,4.6-19.95-2.46-12.73-5.94-25.23-11.71-36.88-3.44-6.91-7.49-13.64-12.14-19.78-2.7-3.56-6.94-6.1-10.87-8.47-1.17-.71-4.24.11-5.32,1.28-1.1,1.2-1.21,3.7-1.03,5.56.15,1.41,1.3,2.79,2.21,4.05Z"/>
    <path class="c" d="M509.35,118.78c7.07-2.96,10.21-8.08,10.79-13.63,1.1-10.65,1.26-21.44,1.14-32.16-.07-5.95-3.73-10.47-8.58-13.92-3.85-2.74-8.33-.78-9.07,4.04-.07.5-.23,1.01-.24,1.52-.12,12.8-.43,25.63-.25,38.45.09,5.52.78,11.22,6.21,15.7Z"/>
    <path class="c" d="M580.34,131.35c3.19,1.75,6.17.77,8.57-1.35,6.15-5.5,12.28-11.04,18.02-16.96,3.59-3.7,2.84-8.46-1.1-12.33-4.18-4.13-8.19-4.6-12.38-1.25-6.14,4.91-10.99,10.91-15.49,20.81.52-1.35-.12.07-.58,1.54-1.24,4.03-.03,7.9,2.96,9.54Z"/>
    <path class="c" d="M621.34,658.06c1.52-.29,3.4-.45,4.36-1.42,1.71-1.74,3.46-3.87,4.13-6.14.87-2.98-1.55-5.18-4.09-5.53-16.28-2.37-24.07-14.75-32.39-26.67-5.12-7.34-8.11-15.51-10.58-24.01-9.52-32.8-17.39-66.02-24.57-99.39-4.57-21.24-8.68-42.6-12.5-63.99-3.17-17.81-5.81-35.72-8.35-53.64-4.23-29.72-7.86-59.54-12.39-89.21-2.74-17.96,12.84-41.19,33.23-44.12,3.07-.45,6.13-1.01,9.18-1.58,26.11-4.86,52.6-4.86,78.97-5.58,11.79-.33,23.63,2.3,35.46,3.5,6.65.67,10.12,4.58,11.49,10.78.56,2.52,1.18,5.05,1.53,7.61,1.64,11.8,3.26,23.6,4.76,35.42.52,4.07,1.19,8.27-2.13,12.4-6.71,2.57-13.79,5.86-21.2,8.01-19.02,5.52-38.21,9.5-58.08,3.75-5.93-1.73-12.17-2.64-18.33-3.32-16.96-1.92-33.07,0-47.02,11.16-5.61,4.48-8.99,10.14-9.05,17.2-.02,2.83,1.35,6.12,3.17,8.34,1.3,1.58,4.37,1.73,7.21,2.72,1.63-4.05,2.85-7.4,4.34-10.64,2.96-6.46,7.95-11.16,14.62-13.09,5.86-1.7,12.2-2.93,18.22-2.58,8.21.48,16.45,2.1,24.43,4.19,26.99,7.06,53.31,5.42,79.19-4.84,1.83-.73,3.8-1.11,6.12-1.77,4.53,7.59,7.67,14.97,8.27,23.43.82,11.36,2.09,22.69,3.03,34.04,3.92,47.47,7.72,94.94,11.69,142.41,2.43,29.08-2.95,56.8-14.79,83.21-8.37,18.7-22.38,32.13-41.84,39.21-3.8,1.39-8.16,1.16-12.17,2.04-3.83.84-5.29,5.96-2.53,8.62,4.5,4.32,9.27,8.28,16.46,9.74,10.77-4.68,22.18-9.45,33.41-14.62,3.17-1.48,6.56-3.59,8.56-6.34,9.72-13.35,19.96-26.4,25.17-42.5,5.41-16.76,11.97-33.46,11.3-51.3-1.32-35.13-1.1-70.35-6.84-105.28-3.7-22.45-5.47-45.22-8.16-67.85-2.87-24.14-5.23-48.38-8.86-72.42-2.95-19.41-7.58-38.57-11.25-57.88-2.46-12.91-10.97-19.4-22.89-22.49-3.5-.9-7.11-1.37-10.67-2.07-20.98-4.12-42.22-4.94-63.39-2.86-21.61,2.12-43.22,4.86-64.58,8.69-7.91,1.42-15.57,3.85-22.61,7.68.64-6.12,1.3-12.23,2.05-18.34,1.61-13.04-4.52-21.83-14.92-28.4-3.07-1.94-6.36-3.49-9.53-5.24-18.74-10.33-38.69-17.6-59.48-22.09-21.23-4.58-42.64-8.59-64.15-11.46-13.3-1.8-26.76-.73-39.39,5.61-8.85,4.43-14.59,10.01-16.65,20.48-7.59,38.59-18.57,76.46-23.81,115.57-3.72,27.68-8.25,55.28-11.77,82.99-3.31,26.19-5.92,52.47-8.57,78.74-1.45,14.42-2.41,28.88-3.48,43.33-1.11,15.18,1.03,29.85,6.17,44.2,3.37,9.41,8.49,17.74,14.42,25.6,4.88,6.49,11.61,10.21,19.72,11.23,1.53.2,3.36.6,4.57-.02,2.18-1.13,4.48-2.62,5.81-4.59,1.74-2.56.1-5.39-2.2-6.51-14.77-7.22-18.41-21.39-22.7-35.29-2.64-8.56-2.98-17.25-2.72-26.09.95-34.15,3.6-68.19,6.97-102.16,2.13-21.63,4.75-43.2,7.66-64.75,2.42-17.94,5.38-35.78,8.42-53.62,5.06-29.59,10.72-59.09,15.47-88.72,2.88-17.95,24.81-35.3,45.11-31.86,3.07.52,6.16.91,9.23,1.3,26.34,3.36,51.57,11.44,76.9,18.82,11.32,3.29,21.8,9.4,32.69,14.17,6.12,2.66,8.23,7.45,7.65,13.78-.24,2.57-.42,5.17-.87,7.71-2.04,11.73-4.1,23.48-6.29,35.18-.75,4.03-1.4,8.23-5.82,11.15-7.17.4-14.93,1.37-22.63,1.15-19.81-.55-39.29-2.61-56.45-14.18-5.13-3.46-10.78-6.22-16.45-8.76-15.56-7.01-31.49-10.09-48.18-3.73-6.71,2.55-11.66,6.9-13.87,13.61-.88,2.69-.59,6.25.46,8.9.76,1.92,3.63,2.99,6.03,4.81,2.79-3.36,4.98-6.19,7.39-8.81,4.79-5.25,10.97-8.19,17.91-8,6.09.17,12.5.94,18.14,3.12,7.67,2.95,15.02,7.02,21.98,11.45,23.55,14.97,49.11,21.44,76.89,19.59,1.96-.14,3.95.1,6.36.18,1.99,8.61,2.73,16.58.72,24.83-2.69,11.07-4.94,22.25-7.51,33.34-10.78,46.39-21.67,92.77-32.39,139.17-6.57,28.43-20.16,53.18-39.5,74.71-13.69,15.24-31.13,23.75-51.83,24.55-4.04.16-8.11-1.39-12.21-1.77-3.9-.36-6.86,4.06-5.04,7.44,2.96,5.48,6.3,10.72,12.69,14.3,11.67-1.16,24-2.22,36.28-3.72,3.47-.43,7.35-1.4,10.1-3.42,13.34-9.73,27.08-19.02,36.95-32.77,10.27-14.31,21.61-28.2,26.44-45.39,9.48-33.87,20.45-67.34,25.65-102.34,3.35-22.5,8.61-44.73,12.97-67.09.67-3.45,1.37-6.89,2.05-10.34,1.57,16.74,3.45,33.45,6.43,50.04,4.92,27.51,9.03,55.16,14.15,82.63,4.84,25.96,10.39,51.77,15.9,77.58,3.02,14.18,6.51,28.25,9.92,42.33,3.57,14.78,10.09,28.1,19.38,40.2,6.09,7.93,13.51,14.29,21.56,19.97,6.63,4.68,14.17,6.17,22.2,4.67Z"/>
    <path class="c" d="M805.18,904.64c-19.71-6.69-39.15-13.61-59.59-17.21-4.04-.71-8.23-1.06-12.32-.88-1.59.07-3.1,2.03-4.86,3.29,4.48,7.43,12.99,7.28,18.18,12,.96,10.62,4.13,12.89,13.33,9.58,1.44-.53,2.69-1.81,4.15-2.04,2.46-.4,5.27-.68,5.88,3.36-36.06,15.23-73.68,19.28-112.29,15.65-11.93-1.13-24.49-.03-36.34-6.95,2.23-2.1,3.46-3.92,5.19-4.81,11.92-6.16,23.96-12.08,35.91-18.18,3.18-1.63,6.45-3.34,9.11-5.66,1.19-1.04,1.48-3.73,1.24-5.56-.14-1.04-2.01-2.3-3.34-2.68-5.6-1.54-11.18-1.2-16.8.53-16.91,5.22-32.49,13.42-48.2,21.33-1.83.93-3.62,2.08-5.14,3.45-5.76,5.23-5.4,14.01.28,17.47,3.96,2.41,7.66,5.46,11.89,7.2,15.46,6.37,31.81,9.54,48.39,9.96,18.6.47,37.22-.41,55.83-.91,28.38-.76,54.91-9.23,80.92-19.77,7.91-3.22,11.37-8.53,8.56-19.17Z"/>
    <path class="c" d="M702.34,889.91c-1.7-14.23-2.89-27.59-4.96-40.83-3.51-22.46-8.09-44.78-11.26-67.3-3.96-28.18-6.92-56.51-10.38-84.75-.62-5.08-.6-10.39-4.53-15.22-4.25-1.49-8.92-3.13-13.39-4.71-3.87,6.09-3.69,11.8-3.03,17.49,2.23,19.54,4.4,39.06,6.94,58.57,5.43,41.54,11.05,83.07,16.68,124.6.74,5.56,2.05,11.03,3.08,16.4,7.57.91,13.24-1.69,20.85-4.26Z"/>
    <path class="c" d="M609.29,514.11c-2.27-.49-5.59-.63-7.03.66-1.44,1.3-2.13,4.91-1.41,6.88,3.1,8.63,13.06,13.41,22.87,11.57,8.58-1.61,16.26-11.75,15.57-20.52-.45-5.84-3.96-9.29-8.96-11.61-5.21-2.42-9.97-2.56-13.58,2.74.02.59-.1,1.15.06,1.62,1.01,3.09,5,5.84.92,9.45-3.17,2.8-5.61-.19-8.43-.79Z"/>
    <path class="c" d="M647.23,416.58c6.44-3.07,9.92-9.01,9.57-16.24-.35-6.91-4.15-11.63-10.02-14.51-4.91-2.4-10.29-1.68-14.89.86-2.27,1.26-3.55,4.3-4.9,6.04,2.75,5.6,8.95-.43,11.11,5.93-1.07,1.14-2.28,2.64-3.7,3.91-1.51,1.34-3.73,2.18-4.67,3.81-.87,1.48-1.3,4.29-.45,5.52,3.65,5.31,12.4,7.32,17.96,4.67Z"/>
    <path class="c" d="M667.01,917.72c.24.91.88,2.05,1.67,2.46,1.8.91,3.77,1.85,5.74,2.04,17.12,1.67,33.99.21,50.46-4.76,2.04-.62,3.49-3.15,6.45-5.96-5.17-.97-8.6-2.13-12.06-2.18-16.14-.26-43.31,2.75-52.01,5.45-.11.99-.47,2.04-.26,2.95Z"/>
    <path class="c" d="M672.66,471.67c2.13-6.39.88-9.04-5.93-11.64-2.29-.87-4.87-1.02-6.93-1.41-4.57,3.69-8.93,6.5-10.26,14.53,3.92,1.76,7.43,3.85,11.23,4.9,6.24,1.74,9.95-.53,11.89-6.38Z"/>
    <path class="c" d="M663.44,545.23c-1.62.16-3.87,1.67-4.46,3.11-1.14,2.85,3.73,6.21,9.76,6.32.68-1.1,2.36-2.6,2.48-4.22.24-3.28-3.2-5.65-7.78-5.21Z"/>
    <path class="c" d="M355.7,833.06c-1.53-.42-3.58.99-5.63,1.65,1.98,8.45,10.14,10.9,13.64,16.99-2.32,10.39,0,13.53,9.76,13.19,1.53-.06,3.12-.9,4.57-.67,2.47.38,5.22.96,4.57,5-39,3.48-76.06-4.16-111.7-19.42-11.01-4.72-23.3-7.52-32.48-17.72,2.75-1.33,4.5-2.68,6.42-3,13.22-2.22,26.49-4.17,39.74-6.34,3.53-.58,7.16-1.2,10.39-2.6,1.46-.62,2.56-3.09,2.88-4.91.2-1.03-1.2-2.81-2.34-3.57-4.87-3.19-10.28-4.57-16.16-4.63-17.71-.21-35.04,2.84-52.43,5.58-2.03.33-4.07.87-5.94,1.72-7.08,3.22-9.42,11.7-5.07,16.71,3.04,3.52,5.62,7.55,9.13,10.5,12.78,10.8,27.38,18.8,43.04,24.27,17.56,6.13,35.56,10.98,53.43,16.21,27.26,7.95,55.1,7.98,83.09,5.89,8.52-.63,13.44-4.64,14.02-15.63-16.73-12.39-33.11-24.93-51.47-34.6-3.64-1.9-7.53-3.52-11.47-4.61Z"/>
    <path class="c" d="M328.35,684.21c-7.54,41.21-14.89,82.47-22.21,123.73-.98,5.52-1.41,11.14-2.08,16.56,6.94,3.18,13.13,2.44,21.17,2.32,2.73-14.07,5.67-27.16,7.75-40.39,3.53-22.47,5.98-45.11,9.85-67.53,4.84-28.03,10.67-55.91,16.02-83.87.96-5.03,2.6-10.07.33-15.87-3.59-2.72-7.53-5.7-11.31-8.56-5.54,4.61-7.12,10.11-8.23,15.72-3.85,19.28-7.75,38.54-11.28,57.89Z"/>
    <path class="c" d="M359.26,443.89c-3.87,1.7-5.27-1.9-7.78-3.33-2.03-1.15-5.13-2.3-6.9-1.52-1.78.81-3.53,4.02-3.45,6.12.32,9.16,8.34,16.77,18.24,18,8.67,1.1,19.07-6.2,21.1-14.76,1.35-5.7-.93-10.07-4.98-13.8-4.23-3.91-8.71-5.49-13.77-1.55-.17.56-.44,1.06-.44,1.56.02,3.25,2.98,7.1-2.02,9.28Z"/>
    <path class="c" d="M403.84,344.22c-1.28,1.15-2.56,3.69-2.13,5.12,1.87,6.17,9.58,10.77,15.69,9.94,7.06-.96,12.2-5.55,14.06-12.54,1.77-6.68-.4-12.35-5.11-16.88-3.94-3.78-9.28-4.76-14.43-3.73-2.55.51-4.7,3.01-6.52,4.25.91,6.17,8.65,2.32,8.77,9.04-1.37.77-2.98,1.81-4.72,2.59-1.85.83-4.21.95-5.6,2.2Z"/>
    <path class="c" d="M283.1,842.5c-.06.94.2,2.22.83,2.84,1.45,1.42,3.03,2.91,4.84,3.7,15.79,6.82,32.31,10.58,49.51,10.88,2.13.03,4.29-1.93,7.97-3.7-4.62-2.51-7.54-4.66-10.81-5.75-15.31-5.18-42.09-10.62-51.2-10.71-.4.91-1.08,1.8-1.14,2.74Z"/>
    <path class="c" d="M422.7,406.62c-1.92-1.53-4.33-2.46-6.18-3.47-5.47,2.13-10.48,3.46-14.21,10.71,3.21,2.88,5.91,5.94,9.2,8.1,5.42,3.55,9.64,2.53,13.28-2.43,3.97-5.44,3.6-8.34-2.09-12.91Z"/>
    <path class="c" d="M399.33,494.07c1.25-3.06-1.3-6.36-5.8-7.34-1.6-.35-4.2.4-5.2,1.59-1.95,2.37,1.65,7.06,7.36,9,.98-.83,3.04-1.75,3.64-3.26Z"/>
  </g>
</svg>