<?xml version="1.0" encoding="UTF-8"?>
<svg id="a" data-name="Capa 1" xmlns="http://www.w3.org/2000/svg" viewBox="0 0 1000 1000">
  <defs>
    <style>
      .b {
        fill: #fff7e5;
      }

      .b, .c {
        stroke-width: 0px;
      }

      .c {
        fill: #be8056;
        fill-rule: evenodd;
      }
    </style>
  </defs>
  <g>
    <path class="b" d="M790.17,461.39c-14.3-47.4-43.27-84.13-80.2-115.67-18.89-16.14-41.26-26.21-63.11-37.18-29.72-14.93-60.54-26.65-94.16-29.08-19.68-1.44-39.31-3.26-59.14-1.15-23.31,2.49-45.26,9.6-67.18,17.33-20.09,7.07-38.33,17.45-55.4,29.82-4.29,3.11-8.62,6.33-12.43,10.05-10.85,8.79-20.96,18.37-30.19,29.09-.28.33-.51.67-.78,1.01-1.52,1.41-2.91,2.98-4.09,4.82-1.94,3-4.21,5.86-6.67,8.63-1.7,1.37-3.37,2.81-4.99,4.31-.16.15-.35.32-.52.47-.63-.05-1.32.02-1.82.21-8.77,3.22-15.53,9.16-20.67,16.78-14.76,21.88-25.03,45.97-33.65,70.77-3.22,9.27-6.24,18.81-7.72,28.47-2.93,19.08-4.72,38.33-7,57.51-2.78,23.23-1.27,46.24,3.48,69.09,4.66,22.35,12.51,43.5,22.44,64.11,13.95,28.94,30.56,55.52,55.54,76.44,26.21,21.96,53.91,41.4,86.65,52.15,36.96,12.12,74.97,18.65,113.99,17.88,5.57,0,11.15.2,16.73-.04,20.25-.81,40.22-3.97,59.42-10.38,40.29-13.44,76.59-33.88,109.06-61.54,16.6-14.14,30.13-30.79,41.57-48.7,17.11-26.76,30.88-55.4,40.52-85.99,10.04-31.83,16.38-64.12,14.34-97.46-1.5-24.4-6.9-48.2-14.03-71.75Z"/>
    <path class="b" d="M963.13,249.92c-.8-6.76-2.57-13.52-4.8-19.97-2.45-7.07-7.56-9.46-14.26-6.55-4.58,1.99-8.98,5.12-12.5,8.68-9.77,9.88-16.76,21.57-21.96,34.54-10.72,26.76-18.5,54.42-25.33,82.36-12.91,52.74-20.18,106.1-19.61,160.58.29,28.41,14.07,49.6,31.93,69.43,2.44,2.71,5.05,3.33,7.82,3.01,1.06,6.32,2.65,12.49,3.09,19.13-.66,1.19-1.2,2.44-1.36,3.69-.96,7.22-2.17,14.49-2.13,21.74.21,33.69-5.21,66.72-11.78,99.56-5.9,29.47-10.73,59.06-14,88.94-2.38,21.63-.59,42.85,5.51,63.69,2.82,9.66,7.33,18.56,16.84,23.19,4.46,2.18,5.94,5.77,7.67,9.67,4.05,9.1,11.63,13.54,21,15.05,9.62,1.55,14.67-2.4,16.04-12.01.35-2.41.39-4.94.03-7.32,1.37-3.08,2.26-6.34,3.36-9.49.58.42,1.17.75,1.65.74,2.26-.02,4.93-1.36,6.58-2.98,1.36-1.32,1.83-3.86,2.05-5.94.67-6.38,1.3-12.81,1.45-19.22.43-17.6-.41-35.28,1.13-52.76,2.23-25.34,1.94-50.63,1.53-75.95-.46-28.76-1.54-57.51-1.78-86.28-.33-37.79-.08-75.58-.08-113.38h-.06c0-4.3-.13-8.6.02-12.89,1.47-44.63,3.22-89.25,4.39-133.88.71-27.05.31-54.13.89-81.17.47-21.52-.81-42.92-3.35-64.23Z"/>
    <path class="b" d="M181.95,253.94c.88-.48.84-2.13-.26-2.32-.19-1.89-.34-3.84-1.09-5.51-.57-1.27-2.48-2.91-3.57-2.75-1.23.19-3.03,2.03-3.19,3.35-.38,2.83-.54,5.71-.59,8.58-.96,2.14-1.09,4.54-.88,7.58.67,10.39.99,20.83,1.22,31.27.24,11.34-1.93,22.03-4.2,33-3.72,2.87-6.83,4.62-9.37,5.34.47-7.09.67-14.25,1.01-21.72-1.19-20.95-2.36-42.31-3.72-63.64-.24-3.81-1.05-7.67-2.27-11.29-.48-1.46-1.43-3.29-2.52-4.47.13-.12.24-.24.39-.29,1.5-.58.93-2.76-.67-2.43-1.62.34-2.92.93-3.79,1.91-1.81.96-2.59,3.46-3.06,5.55-1.11,4.98-2.53,10.09-2.39,15.1.17,7.1-4,54.54-5.6,71.34-.64.54-1.32.85-2.07.91-1.64.12-1.64,2.44,0,2.56.58.04,1.17.09,1.75.13-.05.63-.11,1.25-.15,1.88-2.91,3.27-6.46-2.8-8.82-7.96-1.51-7.55-2.45-15.28-3.41-22.88-2.43-19.45-.84-39.18-2.17-58.7-.06-.88-.66-1.31-1.31-1.42-.03-.19-.04-.39-.06-.59-.24-1.85-2.1-5.04-2.96-4.95-2.23.21-4.99,1.41-6.29,3.15-1.69,2.27-2.7,5.38-3.12,8.24-.8,5.51-1.33,11.09-1.36,16.63-.06,13.71.13,27.39.38,41.09.21,11.52.42,23.04,1.04,34.55-.41-.65-.81-1.33-1.19-2.05-.93-3.45-1.44-7.07-2.05-8.93-1.68-5.26-3-10.66-4.06-16.15-.1-.58-.17-1.18-.27-1.73-1.31-7.12-1.19-14.37-2.46-21.5-.24-1.36-.55-2.67-.85-4-.57-6.48-1.03-12.95-1.53-19.34-.09-1.13-1.17-1.47-1.93-1.12-.31-.89-.65-1.72-1.08-2.48-.1-.15-.24-.19-.37-.3-.05-.89-.08-1.79-.18-2.66-.11-.98-1.4-2.33-2.38-2.57-.97-.24-2.92.45-3.24,1.23-1.8,4.28-3.84,8.58-4.66,13.11-4.02,22.02-4.99,44.29-5.52,66.65.54,17.14.55,51.57,1.77,68.66,1.13,15.99,5.13,31.48,14.76,44.69,3.13,4.3,7.86,7.74,12.51,10.51.88.52,2.27.54,3.72.28.8,4.23,2.53,8.2,3.82,12.3-.25,5.5-.45,11-.46,16.51-.07,34.37-.17,80.24-3.4,114.48-3.63,38.49-7.43,76.96-11.19,115.42-.29,2.99-.81,5.96-1.42,8.89-6.18,29.88-10.91,59.96-14.11,90.3-2.24,21.2-.58,42.03,5.25,62.52,2.5,8.8,6.07,17.27,14.18,22.22,5.37,3.28,8.86,7.25,11.56,12.95,4.96,10.48,14.85,15.53,25.48,13.51,9.75-1.85,19.99-6.57,22.66-18.26,1.44-6.22,2.63-11.05,10.39-12.2,2.82-.42,5.7-4.95,7.26-8.23,4.72-9.82,6.05-20.38,6.25-31.3.58-31.88-2.24-63.51-5.67-95.11-1.85-17.08-3.49-34.24-6.7-51.07-3.65-19.04-6.27-38.14-7.52-57.41-1.03-15.84-.58-31.79-1.27-47.66-1.65-38.19-3.63-87.88-5.34-126.06-.24-5.56,0-11.17.58-16.71.18-1.75,1.9-4.48,3.34-4.78,10.86-2.36,14.95-11.11,18.62-19.77,5.4-12.72,8.76-31.88,9.03-45.75.26-14.17.67-39.92-.52-54-2.37-28.14-5.73-56.21-8.71-84.3Z"/>
  </g>
  <g>
    <path class="c" d="M772.93,441.27c-14.31-47.41-43.28-84.14-80.21-115.68-18.88-16.14-41.25-26.2-63.09-37.17-29.74-14.93-60.56-26.65-94.16-29.09-19.68-1.42-39.31-3.26-59.15-1.13-23.31,2.48-45.26,9.6-67.18,17.31-20.08,7.07-38.34,17.45-55.4,29.82-8.92,6.49-18.07,13.38-22.26,24.38-.52,1.34.26,3.18.44,4.78,1.4-.4,3.14-.41,4.17-1.26,3.64-3,6.87-6.48,10.55-9.4,21.7-17.27,45.76-30.2,71.81-39.66,26.22-9.52,53.21-13.56,80.94-11.17,17.95,1.55,35.81,4.25,53.7,6.51,23.75,3.02,45.9,10.89,66.82,22.38,29.65,16.28,55.27,37.84,79.16,61.44,26.17,25.87,44.36,56.72,53.33,92.54,4.16,16.62,7.11,33.55,10.36,50.39,3.14,16.16,2.43,32.43,1,48.72-1.77,20.26-8.09,39.5-13.24,58.98-13.2,49.85-40.07,91-80.54,122.82-13.11,10.29-26.99,20.3-41.96,27.34-20.51,9.66-42.28,16.76-63.75,24.24-26.99,9.39-54.97,8.55-82.86,5.89-13.23-1.24-26.27-4.31-39.47-6.11-41.13-5.6-77.13-22.71-109.27-48.47-4.34-3.48-8.33-7.41-12.23-11.39-18.13-18.52-32.58-39.89-46.53-61.55-6.46-10.05-12.35-20.73-16.56-31.87-4.51-11.97-7.15-24.7-9.88-37.28-6.75-30.99-7.33-62.11-1.75-93.42,2.64-14.77,3.97-29.78,6.16-44.65.92-6.3,1.65-12.83,3.94-18.69,8.58-22.05,18.41-43.5,33.26-62.26,2.63-3.34,4.65-7.2,6.72-10.96.48-.89.45-2.75-.15-3.35-.63-.64-2.38-.7-3.39-.33-8.78,3.22-15.54,9.17-20.67,16.77-14.76,21.88-25.05,45.98-33.65,70.78-3.22,9.28-6.24,18.81-7.72,28.47-2.93,19.07-4.72,38.32-7,57.5-2.77,23.23-1.27,46.25,3.48,69.09,4.65,22.36,12.51,43.51,22.44,64.12,13.96,28.94,30.57,55.53,55.54,76.44,26.2,21.95,53.91,41.39,86.65,52.15,36.96,12.12,74.96,18.65,113.99,17.88,5.58,0,11.15.19,16.72-.03,20.25-.81,40.22-3.98,59.43-10.39,40.28-13.44,76.59-33.89,109.06-61.54,16.6-14.15,30.13-30.79,41.57-48.7,17.1-26.77,30.88-55.4,40.52-85.99,10.04-31.83,16.38-64.12,14.33-97.46-1.51-24.4-6.91-48.19-14.03-71.74Z"/>
    <path class="c" d="M706.25,614.54c6.59-2.93,8.67-7.67,9.58-12.79,1.88-10.53,4.26-21.12,4.78-31.75,1.43-29.32-2.05-58.11-9.65-86.63-9.24-34.78-26.38-65.5-48.59-92.88-22.62-27.86-50.45-50.27-84.69-63.39-22.5-8.61-45.6-15.09-69.56-17.62-11.45-1.22-23.3-1.47-34.69,0-15.66,2.03-31.4,4.96-46.5,9.55-31.44,9.59-57.38,28.76-81.3,50.67-5.29,4.84-9.21,11.26-13.43,17.19-1.95,2.73-4.17,6.39-.87,9.29,4.06,3.54,6-.97,8.04-3.32,18.93-21.88,43.6-35.76,68.46-49.38,3-1.64,6.25-2.88,9.51-3.95,37.48-12.39,75.85-13.64,114.45-7.68,33.27,5.13,63.08,19.13,90.19,38.9,2.41,1.75,4.57,3.89,6.59,6.08,4.61,5.05,9.11,10.21,13.6,15.38,4.48,5.17,9.27,10.13,13.23,15.67,13.74,19.26,25.74,39.52,34.14,61.79,7.11,18.9,13.51,37.86,15.73,58.18,2.44,22.33,2.41,44.54.53,66.84-.54,6.29-2.34,12.69.45,19.84Z"/>
    <path class="c" d="M283.39,548.11c.53,10.27.02,20.73,1.79,30.79,6.19,35.36,17.23,69.11,37.03,99.43,5.84,8.93,12.36,17.59,19.64,25.37,4.86,5.22,11.61,8.67,17.5,12.94,12.5,9.1,24.99,18.3,39.92,23.13,4.38,1.42,9.13,1.86,13.75,2.31,2.59.26,5.68-.51,5.76-3.68.03-1.55-1.94-3.69-3.55-4.6-3.73-2.11-7.68-3.88-11.72-5.32-18.66-6.64-33.32-19.52-47.32-32.55-9.85-9.18-17.29-21.2-24.89-32.57-14.25-21.33-20.94-45.85-28.23-70.1-4.5-14.97-5.68-30.15-5.79-45.72-.18-23.32,3.51-46.19,6.24-69.18,1.4-11.87,2.56-23.97,8.07-34.99.54-1.1.81-2.5.73-3.74-.09-1.19-.5-3.13-1.23-3.38-1.41-.45-3.65-.56-4.65.27-2.27,1.86-4.56,4.11-5.78,6.7-2.36,5.02-4.64,10.24-5.77,15.61-6.2,29.43-11.29,59.02-11.49,89.29Z"/>
    <path class="c" d="M507.96,754.1c.2.97.41,1.93.62,2.9,11.06-.83,22.19-1.26,33.19-2.57,25.39-3,49.13-10.59,71.06-24.4,25.04-15.78,45.9-35.56,62.66-59.77,1.25-1.8,1.16-4.51,1.69-6.79-2.42-.22-5.01-1.08-7.2-.47-2.31.64-4.48,2.42-6.27,4.17-6.44,6.24-12.81,12.56-18.97,19.07-13.68,14.43-29.34,25.97-46.79,35.58-25.84,14.22-53.59,22.61-81.93,29.64-2.74.68-5.38,1.76-8.06,2.66Z"/>
    <path class="c" d="M658.47,500.36c-1.02-.53-3.68.19-4.33,1.2-3.25,5.02-6.85,10.01-8.91,15.54-10.05,26.93-19.74,54-29.31,81.1-1.49,4.24-3.79,8.62-2.5,14.63,4.6-2.7,6.85-6.12,8.4-10.03,4.6-11.56,9.27-23.09,13.58-34.74,5.64-15.28,9.88-31.06,17.79-45.48,3.09-5.59,4.89-11.91,6.89-18,.39-1.19-.58-3.68-1.62-4.23Z"/>
    <path class="c" d="M619.59,533.42c-.33-.38-3.3.64-4.16,1.73-2.35,3-4.76,6.16-6.25,9.66-6.2,14.54-12.11,29.19-18.06,43.85-.64,1.55-1.5,3.46-1.1,4.87.46,1.7,2.19,3.05,4.23,5.68,2.71-3.31,5.45-5.51,6.68-8.34,6.89-16.1,13.47-32.33,20.11-48.54.49-1.18,1.14-2.56.91-3.68-.37-1.86-1.15-3.81-2.36-5.23Z"/>
    <path class="c" d="M639.3,604.48c.83.41,1.67.8,2.51,1.2,5.05-4.56,7.84-10.8,10.61-16.86,5.99-13.18,11.73-26.49,17.2-39.89,1.65-4.08,5.52-8.27,2.09-13.05-1.78-2.48-6.5.84-10.11,9.18-6.59,15.24-12.47,30.8-18.45,46.3-1.64,4.24-2.58,8.75-3.84,13.12Z"/>
    <path class="c" d="M450.18,743.47c-2.36,1.18-3.1,5.19-.86,6.3,4.44,2.19,9.19,3.8,12.38,5.08,3.57-.67,5.4-.65,6.85-1.4,2.05-1.05,3.2-3.03,1.58-5.23-3.26-4.44-15.1-7.16-19.95-4.75Z"/>
    <path class="c" d="M945.89,229.79c-.81-6.77-2.57-13.51-4.81-19.97-2.45-7.07-7.56-9.46-14.26-6.55-4.58,1.99-8.97,5.12-12.5,8.67-9.76,9.88-16.77,21.58-21.96,34.54-10.72,26.77-18.49,54.44-25.34,82.37-12.91,52.74-20.16,106.1-19.6,160.57.29,28.41,14.07,49.62,31.93,69.43,3.88,4.3,8.15,3.32,12.9,1.75,5.34-1.79,5.76-6.11,5.61-10.34-.09-2.83-1.19-5.87-2.65-8.34-3.46-5.91-7.48-11.5-11.12-17.32-10.12-16.23-18.27-33.04-17.09-52.98.82-13.68.8-27.43,1.91-41.09,2.7-33.01,8.09-65.67,16.93-97.57,9.63-34.73,20.36-69.14,30.76-103.66.83-2.79,2.35-5.66,4.34-7.71,1.53-1.6,4.37-2.72,6.54-2.58,1.19.06,2.57,3.06,3.15,4.96.6,2,.36,4.26.48,6.4.58,11.56.5,23.19,1.92,34.64,3.12,25.2,4.12,50.48,3.57,75.78-.95,43.33-2.22,86.68-4.15,129.99-2.19,49.27-6.94,98.42-7.47,147.79-.09,7.71.16,15.41.19,23.12.05,12.43,0,24.87.06,37.28.16,36.9.4,73.79.54,110.69.09,21.04-.16,42.09.24,63.14.14,7.23,1.6,14.48,2.96,21.63.31,1.64,2.7,4.07,4.11,4.04,2.27-.04,4.94-1.36,6.59-2.99,1.34-1.32,1.82-3.87,2.04-5.93.67-6.39,1.3-12.81,1.45-19.23.43-17.59-.41-35.29,1.13-52.77,2.23-25.32,1.93-50.62,1.54-75.95-.47-28.76-1.55-57.51-1.78-86.26-.32-37.79-.08-75.59-.08-113.39h-.06c0-4.29-.13-8.58.02-12.89,1.47-44.62,3.21-89.24,4.39-133.88.71-27.04.31-54.11.89-81.16.46-21.53-.81-42.91-3.34-64.23Z"/>
    <path class="c" d="M925.24,883.21c-.38-.28-2.44.87-2.92,1.79-2.53,4.88-6.3,6.66-11.68,5.51-5.16-1.13-8.08-4.53-9.92-9.18-1.1-2.8-2.21-5.58-3.28-8.4-1.48-3.89-4.06-7.18-8.28-7.11-8.49.12-9.36-5.49-10.36-11.78-3.26-20.47-3.89-41.07-1.32-61.58,3.3-26.38,7.25-52.69,11.39-78.96,5.26-33.51,10.61-66.99,9.99-101.02,0-8.58.15-17.17-.08-25.74-.06-2.48-.77-5.16-1.93-7.35-1.2-2.31-3.73-2.23-5.32-.36-1.31,1.55-2.36,3.69-2.62,5.68-.96,7.22-2.18,14.5-2.13,21.74.2,33.69-5.22,66.72-11.79,99.56-5.9,29.46-10.72,59.07-14.01,88.94-2.37,21.64-.58,42.85,5.51,63.7,2.83,9.66,7.34,18.55,16.84,23.19,4.47,2.19,5.96,5.76,7.68,9.66,4.05,9.1,11.64,13.55,21,15.06,9.62,1.54,14.67-2.4,16.04-12.01.36-2.53.43-5.19,0-7.68-.23-1.38-1.58-2.78-2.81-3.65Z"/>
    <path class="c" d="M918.97,506.43c1.45-7.99,3.46-15.93,4.12-23.96,1.4-17.1,1.91-34.27,3.07-51.38,3.83-56.58,2.93-113.21,1.65-169.83-.06-2.94-.73-5.95-1.62-8.77-.86-2.74-4.17-3.29-6.27-1.25-3.54,3.44-5.26,7.63-5.37,12.62-.37,18-.94,36-1.23,54-.46,29.16-.76,58.32-1.16,87.47-.37,27.44-1.1,54.87-1.06,82.31,0,11.41.06,23,5.04,33.79.93-5,1.93-10,2.83-15Z"/>
    <path class="c" d="M892.91,754.74c-.72.88-.62,2.44-.86,3.69-4.3,21.5-5.53,43.26-4.89,65.11.11,4.15,1.52,8.46,3.25,12.29.87,1.94,3.78,2.95,5.76,4.38,1.12-2.04,3.04-4,3.22-6.12,1.14-12.8,1.87-25.62,2.73-38.44h1.15c0-10.27.07-20.53-.06-30.79-.04-3.39-.19-6.91-1.2-10.09-.51-1.6-2.98-3.46-4.65-3.53-1.46-.07-3.24,2.01-4.45,3.51Z"/>
    <path class="c" d="M912.19,580.49c.23.96,1.76,2.05,2.81,2.2.75.11,2.28-1.14,2.48-2.01.76-3.32,1.11-6.72,1.54-9.57-.35-2.69-.44-4.85-.98-6.9-.27-1.05-1.22-2.5-2.08-2.66-.84-.17-2.32.83-2.89,1.72-3.52,5.52-2.25,11.43-.87,17.22Z"/>
    <path class="c" d="M164.53,232.27c-.23-2.14-.34-4.39-1.18-6.29-.58-1.27-2.49-2.91-3.56-2.75-1.25.18-3.03,2.02-3.21,3.34-.55,4.22-.77,8.55-.61,12.81.76,19.75,2.02,39.48,2.42,59.25.36,17.16-.58,45.86-.28,63.03.32,18.86-3.88,42.36-11.28,59.53-1.84,4.28-3.14,8.66-8.85,10.11-2.21.55-4.3,4.09-5.19,6.69-1.23,3.59-1.68,7.56-1.75,11.39-.66,33.91-1.69,79.34-1.51,113.26.13,27.48,1.45,54.97,2.89,82.42.84,16.27,1.46,32.77,4.76,48.62,10.6,50.8,13.24,102.15,13.11,153.77-.02,7.36-.17,8.3-7.38,9.82-7.12,1.49-9.95,5.86-11.82,11.94-1.64,5.32-3.53,10.57-5.28,15.87-1.88,5.73-6.34,7.37-12.5,4.63-2.85-1.27-5.21-4.31-6.99-7.05-1.84-2.83-2.75-6.28-3.98-9.48-1.49-3.87-3.96-7.28-8.18-7.24-8.37.06-9.48-5.38-10.53-11.72-3.04-18.35-3.52-36.81-2.09-55.25,2.51-32.13,7.77-63.9,14.15-95.52,4.49-22.29,9.12-44.71,11.13-67.3,2.96-33.34,3.65-78.37,5.3-111.82-.34-.02-.67-.03-1.01-.05-.78-23.63-1.51-47.26-2.35-70.87-.09-2.55-.19-5.38-1.32-7.54-1.01-1.93-3.26-4.03-5.28-4.43-3.62-.75-5.51,2-5.68,5.38-.35,6.43-.54,12.87-.56,19.33-.07,34.35-.16,80.22-3.39,114.48-3.63,38.49-7.42,76.96-11.18,115.42-.3,2.98-.81,5.95-1.43,8.89-6.17,29.88-10.91,59.97-14.11,90.31-2.24,21.19-.58,42.03,5.25,62.51,2.5,8.8,6.07,17.27,14.18,22.22,5.37,3.27,8.85,7.25,11.56,12.95,4.97,10.48,14.85,15.53,25.48,13.51,9.75-1.85,19.99-6.57,22.66-18.26,1.43-6.21,2.63-11.04,10.39-12.19,2.82-.43,5.72-4.95,7.28-8.23,4.71-9.83,6.05-20.38,6.25-31.3.58-31.88-2.25-63.51-5.66-95.11-1.85-17.07-3.51-34.23-6.72-51.07-3.64-19.03-6.26-38.14-7.52-57.4-1.03-15.85-.58-31.79-1.27-47.66-1.65-38.19-3.62-87.88-5.33-126.06-.24-5.56,0-11.18.58-16.71.19-1.75,1.9-4.47,3.33-4.79,10.87-2.35,14.95-11.1,18.63-19.76,5.4-12.73,8.77-31.88,9.03-45.75.27-14.17.66-39.92-.52-54.01-2.42-28.67-5.84-57.24-8.88-85.86Z"/>
    <path class="c" d="M88.86,437.07c1.84,1.1,5.99.06,8-1.45,1.39-1.04,1.8-4.88,1.1-6.92-1.4-3.99-3.69-7.7-5.94-11.33-6.14-9.94-11.33-20.29-12.94-31.99-1.83-13.14-3.96-43.56-4.57-56.78-1.32-28.29-2.01-56.6,1.29-84.85.34-2.94.19-5.99-.16-8.95-.11-.99-1.4-2.34-2.38-2.57-.97-.24-2.92.45-3.24,1.22-1.79,4.28-3.84,8.6-4.66,13.12-4.02,22.02-4.99,44.29-5.52,66.65.54,17.14.54,51.57,1.77,68.66,1.13,15.98,5.14,31.47,14.75,44.67,3.13,4.3,7.88,7.75,12.51,10.52Z"/>
    <path class="c" d="M132.2,341.96c1.04,2.98,6.2,2.91,7.19-.07,1.48-4.43,2.7-20.56,3.11-25.17.77-8.52.88-17.1,1.28-26.08-1.21-20.95-2.36-42.31-3.73-63.65-.24-3.81-1.06-7.67-2.27-11.29-.72-2.19-2.47-5.32-4.17-5.61-3.62-.63-4.85,3.02-5.47,5.9-1.11,4.97-2.53,10.08-2.41,15.09.69,28.2,1.66,56.39,2.91,84.57.24,4.99,1.9,21.52,3.57,26.3Z"/>
    <path class="c" d="M91.61,315.15c.49,9.1,5.28,26.38,14.84,28.59,0-14.24.16-39.35-.04-52.95-.29-19.25-.8-38.51-1.32-57.75-.16-5.58-.47-11.17-1.19-16.69-.24-1.85-2.09-5.04-2.96-4.95-2.23.21-4.98,1.4-6.29,3.14-1.7,2.28-2.7,5.38-3.11,8.25-.8,5.5-1.33,11.09-1.36,16.63-.07,13.7.13,27.38.39,41.09.2,11.56.41,23.1,1.04,34.64Z"/>
    <path class="c" d="M104.83,769.26c-.07-1.94-2.78-3.78-4.26-5.67-1.75,1.58-3.84,2.93-5.14,4.83-.85,1.26-.73,3.3-.79,4.99-.45,11.13-1.41,22.27-1.06,33.36.28,8.49,2.09,16.96,3.64,25.36.29,1.57,2.57,2.77,3.94,4.16.71-1.39,2-2.77,2.01-4.16.18-10.27.11-20.54.11-30.8.59,0,1.17,0,1.75,0,0-10.7.23-21.41-.19-32.09Z"/>
    <path class="c" d="M132.33,821.61c.35,4.65.79,9.43,2.18,13.85.59,1.88,3.53,4.02,5.61,4.25,3.31.37,3.46-2.99,3.77-5.52.1-.84.02-1.71.02-4.43-.35-1.96-.5-5.95-1.92-9.42-.77-1.89-3.62-3.79-5.72-4.07-3.28-.41-4.12,2.79-3.93,5.34Z"/>
    <path class="c" d="M138.47,802.51c.74-2.33,1.14-4.85,1.15-7.29,0-.79-1.58-1.59-3.07-2.96-1.49,1.78-3.72,3.23-3.73,4.71,0,2.2,1.45,4.46,2.54,6.55.1.19,2.9-.37,3.1-1.01Z"/>
  </g>
</svg>