<?xml version="1.0" encoding="UTF-8"?>
<svg id="a" data-name="Capa 1" xmlns="http://www.w3.org/2000/svg" viewBox="0 0 1000 1000">
  <defs>
    <style>
      .b {
        fill: #fff7e5;
      }

      .b, .c {
        stroke-width: 0px;
      }

      .c {
        fill: #be8056;
        fill-rule: evenodd;
      }
    </style>
  </defs>
  <g>
    <path class="b" d="M854.07,733.16c-.91-32.02-1.82-79.85-3.82-127.65-1.01-24.09-2.49-48.27-9.25-71.73-3.85-13.33-9.5-25.66-19.03-35.78-3.06-3.26-7.98-7.51-11.51-7.06-9.16,1.16-16.16-3.79-24.17-5.64-8.12-1.86-16.39-3.29-24.67-4.11-15.66-1.57-31.41-2.14-47.04-3.87-22.89-2.54-45.48-7.44-68.82-6.09-14.09.81-28.36-.54-42.5-1.5-12.71-.86-16.59-5.05-17.66-17.45-.18-2.08.09-4.2.07-6.3-.18-18.38-.42-36.76-.56-55.15-.03-3.13.16-6.28.43-9.41.34-4.12,2.72-6.86,6.57-7.94,4.54-1.28,9.19-2.15,13.82-3.15,8.19-1.76,16.43-3.25,24.55-5.24,16.14-3.97,27.13-13.09,29.54-30.47.5-3.63,1.23-7.23,1.73-10.86,1.2-8.84,1.91-17.76,3.56-26.51,6.22-32.91,5.97-65.84-.23-98.61-2.53-13.35-6.73-26.56-15.85-37.35-12.66-14.98-29.58-21.66-48.45-23.15-23.04-1.81-46.14-2.75-69.23-3.64-18.86-.73-37.77-1.62-56.61-1.01-26.9.87-52.82,8.19-78.94,14.02-13.33,2.98-20.52,11.94-24.47,24.12-1.62,4.97-2.86,10.18-3.39,15.37-2.26,21.94-4.45,43.9-6.18,65.88-1.61,20.54-.04,40.84,4.1,61.14,2.42,11.87,4.65,23.48,10.18,34.45,6.46,12.78,16.69,19.96,30.21,22.91,5.1,1.12,10.4,1.36,15.6,2.09,4.15.58,8.3,1.22,12.42,1.99,4.27.79,6.17,3.59,6.1,7.83-.07,3.16-.29,6.31-.24,9.45.3,19.96-.92,40.1,1.51,59.8,1.8,14.44-.84,14.77-13.67,14.63-14.71-.16-29.43.78-44.14.56-32.1-.47-63.66,7.92-95.86,5.83-3.03-.2-6.16,1.17-9.23,1.9-7.67,1.82-15.25,4.18-23.01,5.39-8.58,1.35-14.31,5.96-18.63,13.07-10.45,17.23-17.77,35.81-21.39,55.53-2.91,15.92-3.87,32.19-5.83,48.3-.63,5.21-2.15,10.34-2.42,15.56-1.61,31.44-3.13,62.89-4.36,94.35-.55,14.13.23,28.34-.62,42.44-1.34,22.61-1.55,45.15,1.25,67.63,3.31,26.55,7.2,53.02,10.41,79.58,1.09,9.02,5.89,15.32,11.84,21.53,7.41,7.72,16.88,10.35,26.74,12.28,28.98,5.67,58.32,7.62,87.78,8.29,22.56.52,45.13,1,67.68,1.71,23.09.72,46.17,2.34,69.25,2.43,55.65.23,111.3-.38,166.95-.29,23.14.03,46.2-.21,69.08-4.25,4.05-.72,8.33-.17,12.49-.18,24.08-.08,48.21,3.97,72.2-1.93,9.65-2.37,19.7-3.06,29.44-5.16,4.48-.97,9.04-2.86,12.86-5.39,12.67-8.38,16.24-20.93,15.96-35.49-.95-47.29-1.55-94.59-2.54-157.69Z"/>
    <path class="b" d="M271.5,183.14c7.57,1.83,15.34,2.89,20.16,3.76,4.51,0,6.08.09,7.63-.01,5.22-.36,8.86-2.81,10.16-8.08,1.31-5.23-.63-8.84-5.1-11.87-9.1-6.14-19.41-7.5-29.85-7.68-6.89-.12-10.25,4.38-10.95,12.64-.57,6.56,1.19,9.59,7.95,11.23Z"/>
    <path class="b" d="M393.27,99.26c1.62-.1,3.36-4.58,4.32-7.33.82-2.4.63-5.15.83-7.25-1.04-9.33-1.65-18.21-3.24-26.9-.45-2.51-3.45-5.86-5.77-6.34-2.06-.42-5.74,2.05-7.16,4.23-7.25,11.18-6.52,29.77,1.78,39.88,1.92,2.33,6.18,3.89,9.24,3.71Z"/>
    <path class="b" d="M322.99,147.24c3.59.85,6.08-.72,7.06-4.27.55-1.98.76-4.05.93-5.04-.29-10.02-9.93-26.5-18.08-30.8-1.59-.84-5.29.04-6.59,1.45-1.98,2.15-3.35,5.34-3.87,8.28-1.76,9.89,10.67,28.04,20.55,30.38Z"/>
  </g>
  <g>
    <path class="c" d="M814.28,701.77c-.85-30.13-1.71-75.12-3.6-120.09-.96-22.66-2.35-45.41-8.7-67.49-3.62-12.53-8.94-24.14-17.91-33.66-2.88-3.07-7.51-7.07-10.83-6.64-8.62,1.09-15.2-3.57-22.74-5.3-7.64-1.75-15.43-3.1-23.22-3.87-14.74-1.48-29.55-2.02-44.26-3.64-21.53-2.39-42.78-7-64.75-5.73-13.26.76-26.68-.52-39.98-1.41-11.96-.8-15.62-4.75-16.62-16.42-.17-1.96.09-3.95.07-5.93-.17-17.29-.4-34.58-.53-51.88-.03-2.95.15-5.91.41-8.85.31-3.88,2.55-6.45,6.17-7.47,4.28-1.21,8.65-2.03,13-2.96,7.7-1.65,15.46-3.06,23.09-4.93,15.19-3.73,25.53-12.32,27.8-28.67.47-3.41,1.15-6.8,1.63-10.21,1.13-8.31,1.8-16.71,3.35-24.94,5.85-30.96,5.61-61.95-.22-92.77-2.38-12.56-6.33-24.99-14.92-35.14-11.92-14.09-27.83-20.38-45.58-21.78-21.67-1.7-43.4-2.59-65.13-3.42-17.75-.69-35.54-1.52-53.26-.96-25.31.81-49.69,7.71-74.27,13.19-12.54,2.8-19.31,11.23-23.03,22.69-1.52,4.68-2.69,9.58-3.19,14.46-2.13,20.64-4.18,41.3-5.81,61.98-1.51,19.32-.04,38.43,3.85,57.52,2.28,11.17,4.37,22.09,9.59,32.41,6.08,12.02,15.69,18.78,28.42,21.56,4.8,1.05,9.79,1.28,14.67,1.97,3.9.54,7.81,1.14,11.68,1.87,4.02.75,5.81,3.38,5.74,7.37-.06,2.97-.27,5.93-.22,8.9.28,18.77-.87,37.72,1.42,56.26,1.69,13.59-.79,13.9-12.85,13.76-13.84-.15-27.69.73-41.53.53-30.2-.45-59.89,7.45-90.2,5.49-2.85-.19-5.79,1.1-8.68,1.79-7.21,1.71-14.34,3.93-21.64,5.07-8.07,1.27-13.46,5.61-17.53,12.3-9.82,16.21-16.71,33.69-20.12,52.24-2.73,14.98-3.63,30.29-5.48,45.44-.6,4.9-2.03,9.73-2.28,14.64-1.51,29.58-2.95,59.17-4.11,88.76-.51,13.3.22,26.66-.58,39.93-1.27,21.27-1.46,42.48,1.17,63.63,3.11,24.97,6.78,49.88,9.8,74.87,1.02,8.48,5.54,14.41,11.14,20.25,6.98,7.26,15.89,9.73,25.16,11.55,27.27,5.33,54.87,7.17,82.59,7.8,21.23.49,42.46.95,63.68,1.61,21.72.68,43.43,2.2,65.14,2.29,52.36.21,104.71-.36,157.07-.27,21.78.03,43.46-.2,64.99-4,3.81-.67,7.84-.16,11.75-.17,22.65-.07,45.36,3.73,67.93-1.82,9.09-2.23,18.54-2.88,27.7-4.86,4.21-.91,8.51-2.69,12.1-5.06,11.93-7.88,15.28-19.7,15.01-33.39-.89-44.49-1.46-88.99-2.39-148.35ZM392.74,326.5c-11.05-8.31-16.98-20.98-17.44-34.55-.98-28.63.03-57.33-.76-85.97-.42-15.2,7.33-24,19.54-30.2,13.93-7.07,28.99-9.56,44.48-9.67,13.83-.1,27.66-.02,41.5-.02.03-.44.05-.87.09-1.31,27.59,1.91,55.17,3.84,82.77,5.69,3.45.23,6.91,0,10.36,0,20.71.08,35.35,10.59,40.06,30.41,2.72,11.45,3.83,23.35,4.86,35.12,1.16,13.28,1.06,26.68,2.15,39.97.79,9.64-.39,18.62-4.71,27.31-1.96,3.91-3.06,8.26-4.35,12.47-2.99,9.74-8.72,16.51-19.25,18.22-20.94,3.42-41.81,7.73-62.9,9.98-20.11,2.14-40.44,2.2-60.69,3.02-13.39.54-26.58-.89-39.77-3.58-13.49-2.74-25.33-8.93-35.93-16.89ZM528.1,444.84c.34,4-1.79,5.56-5.02,5.62-10.35.2-20.71.07-31.08.07v.37c-9.38,0-18.75.08-28.14-.04-3.27-.04-6-1.51-5.39-5.31,3.48-21.29-1.34-42.27-2.17-63.4-.07-1.48-.3-2.95-.29-4.42.02-3.39,1.52-5.77,5.11-5.92,20.22-.86,40.44-1.76,60.66-2.33,5.39-.15,6.82,1.81,6.33,7.47-1.97,22.64-1.97,45.28-.02,67.9ZM238.67,535.61c.62-6.36,2.55-12.59,3.7-18.91,3.02-16.52,13.67-26.38,29.11-29.94,13.39-3.09,27.31-4.43,41.07-5.22,43.92-2.56,87.86-2.21,131.82-.41,26.11,1.07,52.28.66,78.39,1.68,24.63.97,49.24,2.98,73.87,4.44,3.44.2,6.92.18,10.35-.11,34.1-2.98,68.04-.71,101.94,3.01,10.24,1.13,20.51,2.05,30.77,3.07-9.35-.34-18.71-.95-28.06-.96-16.76,0-33.55.36-50.31.53-6.5.08-11.98,2.04-13.44,9.07-2.97,14.47-5.98,28.95-8.04,43.56-.96,6.78,2.54,13.11,9.45,15.13,11.74,3.43,23.2,8.3,36.03,7.06,16.18-1.57,32.42-2.3,48.65-3.42.98-.06,1.97-.18,2.92-.37,10.07-2,17.41-7.38,19.33-17.79,1.25-6.72.8-13.73,1.55-20.56,1.7-15.4-3.14-26.9-18.47-32.57,5.92.23,11.86.19,17.75.73,14.51,1.34,22.8,10.24,23.62,25.1.26,4.93.03,9.9.5,14.82.85,8.79,2.1,17.53,3.11,26.3.86,7.33-1.71,11.01-8.63,10.35-25.3-2.42-50.28,1.63-75.41,2.81-15.27.71-30.62-.2-45.93-.39-4.43-.05-8.93-.69-13.27-.09-5.47.75-9.29-1.12-13.33-4.61-30.84-26.64-65.62-45.34-106.61-50.13-25.72-2.99-51.28-1.51-75.99,7.36-10.96,3.95-20.54,9.92-27.53,19.32-6.97,9.38-15.73,11.36-27.11,10.22-22.58-2.25-45.31-4.18-67.95-4.04-21.15.13-42.26,3.53-63.42,4.72-26,1.47-22.92,5.61-20.43-19.76ZM739.66,528.85c-.05,5.87-1.62,8.08-7.71,8.57-16.66,1.35-33.34,2.53-50.05,3.31-4.3.2-8.81-.84-13-2.11-9.01-2.73-9.97-4.53-8.94-13.87,1.02-9.41,2.38-10.49,12.06-10.34,8.37.13,16.73.04,25.09.04,0,.21.02.43.03.63,10.81.66,21.65.99,32.42,2.05,7.83.77,10.17,3.96,10.11,11.71ZM389.71,658.38c-3.21-36.82,13.39-64.95,37.71-89.79,4.43-4.53,8.76-9.26,13.72-13.19,15.27-12.11,32.65-17.55,52.29-16.5,9.29.5,18.78-1.49,28.01-.62,21.82,2.03,42.85,7.11,60.85,20.67,19.44,14.66,36.21,31.97,51.1,51.2,5,6.47,7.84,13.34,7.74,21.77-.09,8.85.64,17.76,1.71,26.57,3.92,32.19-6.68,60.38-23.96,86.54-3.7,5.61-9.23,10.35-14.71,14.42-19.69,14.57-41.09,24.33-65.95,27.95-16.02,2.34-31.62,2.25-46.97-.44-19.78-3.49-39.73-8.14-54.55-23.77-7.13-7.52-14.56-14.76-21.35-22.57-17.6-20.25-25.69-44.07-25.64-70.77,0-3.95,0-7.9,0-11.46ZM793.26,772.26c-1.51,21.2-3.35,42.37-5.03,63.55-.98,12.48-2.2,13.95-14.01,17.3-6.18,1.76-12.26,3.83-18.47,5.47-3.75.99-7.74,2.29-11.47,1.9-8.54-.9-16.7-.3-24.85,2.42-3.2,1.07-6.79,1.2-10.22,1.31-32.6,1.11-65.21,2.17-97.82,3.12-12.83.38-25.7.87-38.54.58-29.24-.66-58.25,1.46-87.35,4.09-21.59,1.95-43.45,1.27-65.17,1.13-30.65-.2-61.3-1.45-91.94-1.36-27.65.08-54.06-4.11-78.85-17.1-7.2-3.78-11.75-8.45-12.53-16.78-.85-8.85-2.57-17.62-3.4-26.47-2.19-23.58-4.69-47.16-5.89-70.8-.72-14.2.9-28.51,1.23-42.78.23-9.3-.33-18.65.1-27.94.95-20.2,2.29-40.37,3.48-60.56.38-6.38.43-12.81,1.23-19.15.87-6.91,2.38-8.16,9.58-8.7,15.29-1.15,30.59-2.03,45.88-3.12,28.11-2.01,56.18-.45,84.26.81,3.42.15,6.8.8,12.65,1.54-3.02,6.25-4.97,10.69-7.25,14.94-13.51,25.11-18.07,51.85-16.04,80.2,3.9,54.72,32.76,92.65,78.89,119.22,17.92,10.32,37.02,16.15,58.04,14.88,13.3-.79,26.63-.87,39.95-1.33,16.17-.56,30.86-6.36,45.35-12.87,3.15-1.42,6.2-3.17,9.48-4.21,21.35-6.77,33.67-22.71,44.1-41.38,12.01-21.45,18.76-44.69,24.32-68.19,5.33-22.49,4.35-45.17-5.37-66.81-1.41-3.16-2.75-6.33-4.15-9.49-3.53-8.01-2.92-8.91,6.35-8.72,8.39.16,16.8.91,25.18.61,11.82-.42,23.6-1.94,35.42-2.32,19.24-.62,38.5-.99,57.75-.84,8.65.07,9.98,1.52,11,10.55,1.6,14.24,2.9,28.55,3.56,42.86,1.27,27.17,2.39,54.35,2.75,81.54.2,14.29-1.19,28.62-2.21,42.89Z"/>
    <path class="c" d="M266.2,184.3c7.12,1.72,14.43,2.72,18.96,3.54,4.25,0,5.72.09,7.18-.01,4.91-.34,8.33-2.64,9.56-7.6,1.23-4.92-.6-8.32-4.8-11.16-8.57-5.78-18.26-7.06-28.08-7.22-6.48-.12-9.64,4.12-10.31,11.9-.53,6.18,1.13,9.02,7.49,10.56Z"/>
    <path class="c" d="M380.76,105.4c1.52-.09,3.16-4.31,4.06-6.89.78-2.26.59-4.85.79-6.82-.98-8.78-1.55-17.13-3.05-25.31-.43-2.36-3.24-5.51-5.43-5.97-1.94-.39-5.39,1.93-6.73,3.98-6.82,10.52-6.13,28.01,1.67,37.52,1.81,2.19,5.81,3.66,8.69,3.49Z"/>
    <path class="c" d="M314.64,150.54c3.37.8,5.72-.68,6.63-4.02.52-1.86.72-3.81.88-4.74-.28-9.43-9.34-24.93-17.01-28.98-1.5-.79-4.98.04-6.2,1.37-1.86,2.02-3.15,5.02-3.64,7.79-1.66,9.3,10.03,26.38,19.34,28.58Z"/>
    <path class="c" d="M737.31,825.33c-3.39-.38-6.87-.16-10.28.16-17.61,1.6-35.22,3.3-52.83,4.96-.03-.25-.05-.5-.08-.75-8.35,0-16.68.03-25.02,0-5.76-.01-7.77,1.68-9.1,7.31-1.08,4.58.39,7.94,4.72,9.43,3.65,1.26,7.55,2.25,11.4,2.45,8.84.47,17.75,1.07,26.55.36,12.2-.98,24.53-2.18,36.35-5.1,7.36-1.81,14-6.8,20.72-10.77,1.27-.75,2.25-3.59,1.85-5.08-.34-1.32-2.7-2.79-4.29-2.97Z"/>
    <path class="c" d="M773.32,758.58c1.48-3.52,1.96-7.45,2.88-11.26-.66-2.44-.66-5.26-2.06-6.88-1.18-1.37-4.58-2.5-5.96-1.77-6.06,3.23-9.17,14.9-5.56,20.45,1.17,1.8,3.79,3.7,5.69,3.64,1.76-.05,4.24-2.31,5.02-4.19Z"/>
    <path class="c" d="M773.6,780.11c-1.67-.35-4.9,1.58-5.66,3.3-1.94,4.39-3.33,9.17-3.98,13.92-.18,1.48,2.52,4.41,4.31,4.78,1.78.38,5.03-1.04,5.93-2.63,1.87-3.36,2.63-7.34,3.47-9.96,0-2.18.36-3.36-.07-4.1-1.14-1.99-2.37-4.98-4.01-5.32Z"/>
    <path class="c" d="M270.73,529.84c5.52,5.28,12.68,7.34,20.3,7.65,8.81.39,11.34-.94,14.8-9.05,2.11-4.96,3.99-10.15,5.01-15.41.62-3.14.16-6.99-1.17-9.9-4.06-8.84-18.49-14.16-28.18-10.93-8.67,2.88-19.76,18.8-17.67,26.7,1.06,4,3.86,8.01,6.91,10.94Z"/>
    <path class="c" d="M521.79,764.3c6.87-.52,14.05.09,20.52-1.77,15.15-4.34,29.59-10.55,41.95-20.85,21.71-18.11,36.13-40.39,38.74-69.05.56-6.22.4-13.25-1.94-18.86-7.97-19.11-17.32-37.46-31.47-53.15-30.1-33.35-76.37-43.36-117.75-25.96-29.27,12.29-47.45,35.71-54.93,65.75-7.52,30.15-2.24,59.08,19.12,83.11,22.7,25.53,50.84,40.26,85.77,40.79ZM438.81,632.16c6.69-12.71,13.58-25.38,24.95-34.54,4.85-3.9,10.65-7.48,16.59-9.03,21.2-5.56,42.18-4.18,62.01,5.72,30.26,15.13,50.06,39.09,59.48,71.67,3.98,13.79,1.75,26.29-6.31,38.01-14.67,21.37-33.68,35.75-60.44,37.76-4.92.37-9.84.77-17.81,1.4-8.34,1.61-18.52-2.23-28.22-7.32-25.4-13.31-45.14-31.88-52.93-60.51-3.96-14.53-4.68-29.17,2.69-43.18Z"/>
    <path class="c" d="M489.17,330.61c28.02-.17,52.5-2.22,76.24-10.27,8.6-2.92,14.73-7.87,18.1-16.15,2.03-5.01,4.13-10.09,5.25-15.35,3.79-17.56,3.51-35.46,1.76-53.11-2.36-23.91-11.84-33.35-35.34-39.55-37.83-9.97-76.28-9.43-114.68-5.82-18.52,1.74-32.14,11.48-36.15,31.58-4.32,21.58-4.26,42.92-.9,64.69,1.63,10.6,5.94,18.48,13.35,25.44,7.37,6.92,16.14,11.25,25.63,14.38,16.33,5.39,33.16,4.41,46.74,4.16ZM422.1,276.05c-3.02-19.2-3.73-38.32,1.17-57.32,1.83-7.05,3.27-8.45,10.02-8.51,17.74-.17,35.47-.06,53.2-.06.38,1.22.78,2.44,1.14,3.65-6.89,5.37-13.67,10.9-20.73,16.04-5.84,4.24-9.92,9.59-11.93,16.46-1.27,4.4,1.35,8.3,6,7.87,3.69-.34,7.76-1.64,10.78-3.78,14.05-9.96,28.08-19.99,41.51-30.76,6.83-5.48,13.39-7.69,21.73-4.93,4.57,1.5,9.35,2.41,15.35,3.92-4.07,5.86-8.99,8.97-13.67,12.17-14.61,10.01-29.46,19.7-44.01,29.83-6.07,4.22-11.62,9.17-17.36,13.85-1.51,1.25-3.24,2.5-4.17,4.15-2.15,3.8-5.29,8.27-1.96,12.26,3.54,4.25,8.4,1.77,12.06-.65,10.28-6.82,20.4-13.85,30.37-21.12,10.76-7.84,21.6-15.62,31.72-24.22,5.93-5.03,10.65-11.54,15.69-17.57,3.38-4.05,6.25-4.2,8.83.5,1.63,2.95,3.15,6.33,3.38,9.62.92,13.78,1.8,27.58,1.74,41.38-.03,9.36-5.23,15.67-14.76,17.84-18.79,4.32-37.64,7.98-57.1,7.07-12.81-.6-25.7-.16-38.46-1.25-12.42-1.06-24.3-4.37-33.55-13.79-3.56-3.63-6.18-7.41-7.01-12.64Z"/>
    <path class="c" d="M487.1,662.22c.23,2.01.25,5.02.95,7.88,2.6,10.92,13.68,18.94,24.14,17.73,17.71-2.04,29.14-16.49,27.14-34.35-1.16-10.42-7.93-16.93-18.45-17.84-3.21-.28-6.41.14-7.12,3.58-.52,2.53-.21,5.86,1.11,7.96,1.49,2.33,4.67,3.51,6.81,5.51,2.76,2.55,2.04,5.55-.37,7.72-7.19,6.49-17.73,3.1-19.31-6.25-.64-3.85-.15-7.88-.5-11.8-.11-1.22-1.09-2.97-2.07-3.32-1.11-.39-2.97.16-3.99.96-6.92,5.41-8.11,13.17-8.35,22.21Z"/>
    <path class="c" d="M539.28,713.05c1.65,2.16,6.37,4.14,8.63,3.29,7.21-2.69,15.41-5.3,20.51-10.57,9.01-9.29,13.96-21.31,13.86-33,.18-9.85-1.38-17.41-6.22-24.09-3.44-4.74-6.38-10.38-13.21-10.31-3.74.04-4.55,7.87,0,17.39,7.19,15.06,2.84,26.56-8.98,36.53-4.13,3.48-8.48,6.68-12.52,10.23-3.31,2.89-4.6,7.18-2.05,10.52Z"/>
    <path class="c" d="M460.14,665.68c1.11-.07,2.87-2.84,2.92-4.43.37-12.41,5.77-22.63,13.03-32.23,4.83-6.38,10.52-11.41,17.8-15,4.33-2.13,5.47-6.86,4.41-11.54-.73-3.22-6.82-5.88-11.39-4.48-3.62,1.12-7.56,2.91-10.09,5.6-6.36,6.77-13.05,13.61-17.61,21.57-4.8,8.35-7.24,18.03-10.75,27.21,2,4.3,3.17,8.08,5.4,11.1,1.13,1.54,4.18,2.33,6.28,2.2Z"/>
    <path class="c" d="M496.97,706.15c-.63,1.86-1.97,4.24-2.16,6.69-.26,3.24,1.5,5.61,5.16,5.31,3.53-.28,4.9-2.71,4.86-5.95-.07-3.54-3.4-6.58-7.86-6.05Z"/>
    <path class="c" d="M435,256.58c-4.76,1.91-9.31,9.11-8.44,14.18.6,3.37,3.27,4.74,6.61,4.27,5.55-.78,9.27-5.84,9.69-12.93.28-4.5-3.58-7.22-7.85-5.52Z"/>
  </g>
</svg>